<?xml version="1.0" standalone="no"?>
<!DOCTYPE svg PUBLIC "-//W3C//DTD SVG 20010904//EN"
 "http://www.w3.org/TR/2001/REC-SVG-20010904/DTD/svg10.dtd">
<svg version="1.0" xmlns="http://www.w3.org/2000/svg"
 width="1080.000000pt" height="1080.000000pt" viewBox="0 0 1080.000000 1080.000000"
 preserveAspectRatio="xMidYMid meet">
<metadata>
Created by potrace 1.11, written by Peter Selinger 2001-2013
</metadata>
<g transform="translate(0.000000,1080.000000) scale(0.100000,-0.100000)"
fill="#000000" stroke="none">
<path d="M7139 9806 c-2 -2 -41 -7 -86 -10 -45 -4 -91 -9 -103 -11 -12 -2 -43
-7 -68 -10 -26 -3 -54 -7 -62 -9 -8 -3 -31 -7 -50 -10 -51 -8 -84 -15 -159
-32 -36 -9 -73 -17 -81 -19 -42 -9 -198 -58 -286 -89 -618 -217 -1177 -625
-1579 -1151 -375 -492 -609 -1071 -681 -1690 -8 -74 -14 -163 -19 -301 -9
-259 -20 -347 -62 -499 -82 -297 -242 -544 -498 -770 -38 -34 -204 -143 -271
-178 -191 -101 -477 -171 -694 -170 -135 0 -251 13 -370 41 -447 107 -825 412
-1024 826 -109 228 -157 451 -151 701 2 77 9 167 15 200 7 33 13 69 15 80 9
73 69 246 125 360 46 94 131 230 184 293 91 110 199 213 281 270 22 15 42 29
45 33 9 10 124 76 185 106 103 51 287 113 375 127 19 3 46 8 60 11 33 7 123
16 187 19 l51 3 22 -66 c65 -197 264 -368 475 -406 127 -23 281 -1 400 58 354
174 462 632 224 949 -82 110 -207 191 -382 247 -235 75 -414 103 -687 107
-182 2 -237 -1 -382 -20 -183 -25 -483 -110 -636 -182 -41 -19 -76 -34 -79
-34 -13 0 -239 -130 -313 -181 -510 -349 -871 -883 -1003 -1489 -44 -201 -52
-287 -52 -570 1 -211 5 -320 20 -460 2 -25 7 -70 10 -100 8 -84 28 -227 41
-295 2 -11 13 -70 24 -131 61 -335 213 -817 365 -1159 115 -259 304 -597 470
-840 65 -96 254 -348 292 -390 10 -11 52 -60 93 -109 89 -106 380 -401 500
-507 296 -262 605 -480 980 -693 147 -83 480 -239 650 -303 237 -91 564 -192
735 -228 255 -53 440 -85 585 -100 30 -3 71 -8 90 -10 150 -16 245 -20 530
-20 288 0 447 6 545 20 17 2 73 9 125 15 52 5 104 12 115 14 11 2 41 6 66 10
63 9 96 15 154 26 28 6 61 12 75 15 46 9 214 47 265 60 28 8 77 21 110 30 480
128 1046 383 1490 673 537 351 1007 790 1386 1297 412 549 714 1168 894 1835
19 69 36 136 39 150 30 136 65 313 70 345 4 23 8 52 11 65 3 14 7 45 10 70 3
25 7 56 10 70 2 14 6 52 10 85 3 33 8 74 10 90 27 222 27 791 0 952 -3 16 -11
71 -20 123 -42 263 -105 487 -207 740 -119 294 -329 648 -513 865 -27 33 -61
73 -75 90 -58 71 -333 337 -425 411 -420 337 -878 561 -1387 678 -163 37 -194
43 -343 61 -27 3 -66 8 -85 11 -41 7 -575 16 -581 10z m581 -909 c259 -38 483
-103 698 -203 40 -19 75 -34 78 -34 12 0 200 -110 279 -163 217 -146 425 -336
577 -527 256 -323 455 -755 513 -1120 7 -44 10 -58 19 -110 20 -108 27 -433
12 -590 -90 -972 -762 -1827 -1687 -2145 -128 -44 -289 -87 -374 -99 -22 -3
-51 -8 -65 -11 -62 -12 -91 -15 -175 -22 -473 -37 -917 48 -1339 258 -120 60
-318 180 -382 232 -172 139 -201 166 -315 282 -335 345 -589 840 -663 1295
-10 66 -19 117 -21 131 -17 88 -22 338 -12 499 7 108 8 118 33 260 19 117 20
118 49 227 114 418 341 807 655 1123 401 403 940 661 1512 724 147 16 474 12
608 -7z m-3258 -4276 c65 -107 121 -190 214 -311 106 -138 151 -188 313 -350
207 -207 396 -355 649 -507 108 -65 397 -213 417 -213 3 0 25 -9 48 -19 116
-53 420 -147 572 -177 81 -16 188 -34 230 -39 28 -4 57 -8 65 -10 72 -18 541
-27 690 -12 117 11 183 18 205 22 49 8 177 32 215 40 14 3 35 7 48 10 13 2 32
7 42 10 10 3 27 8 37 10 44 10 136 37 237 69 60 20 112 36 114 36 6 0 -58 -61
-158 -150 -40 -36 -78 -70 -84 -75 -31 -28 -121 -100 -206 -164 -52 -39 -99
-74 -105 -79 -17 -13 -219 -146 -240 -158 -11 -6 -72 -42 -135 -79 -102 -60
-303 -162 -445 -225 -212 -95 -616 -225 -825 -265 -12 -2 -29 -6 -38 -9 -9 -3
-35 -7 -57 -11 -22 -3 -47 -7 -55 -10 -8 -2 -31 -6 -50 -9 -19 -3 -44 -7 -55
-10 -19 -3 -37 -6 -170 -22 -27 -3 -58 -8 -68 -10 -129 -24 -862 -24 -940 1
-7 2 -41 7 -77 11 -78 8 -76 8 -170 23 -322 53 -660 147 -960 268 -119 48
-423 193 -505 241 -16 9 -57 33 -90 51 -97 56 -311 199 -425 285 -446 338
-809 730 -1110 1203 -47 74 -100 163 -97 163 1 0 34 -12 72 -26 130 -49 324
-104 415 -118 19 -3 62 -10 95 -16 188 -32 484 -31 695 1 41 6 84 12 95 14 94
14 283 67 415 116 380 143 721 378 984 682 l59 68 44 -83 c24 -45 67 -120 95
-167z"/>
</g>
</svg>
