<svg width="24" height="21" viewBox="0 0 24 21" fill="none" xmlns="http://www.w3.org/2000/svg">
<path d="M17.682 0H15.156V9.97769L17.682 7.45169V0Z" fill="#0D4137"/>
<path d="M2.526 0H0V20.208H2.526V0Z" fill="#0D4137"/>
<path d="M10.1041 0H7.57812V5.05199H10.1041V0Z" fill="#0D4137"/>
<path d="M10.1041 7.57788H7.57812V12.6299H10.1041V7.57788Z" fill="#0D4137"/>
<path d="M10.1041 15.1562H7.57812V20.2082H10.1041V15.1562Z" fill="#0D4137"/>
<path d="M23.4413 10.849L21.9888 9.39652C21.2437 8.65135 20.0438 8.65135 19.3113 9.39652L12.63 16.0778V20.2078H16.76L23.4413 13.5265C24.1864 12.7814 24.1864 11.5815 23.4413 10.849ZM15.8885 18.2501H14.5877V16.9493L18.945 12.5919L20.2459 13.8928L15.8885 18.2501Z" fill="#0D4137"/>
</svg>
