<svg width="104" height="90" viewBox="0 0 104 90" fill="none" xmlns="http://www.w3.org/2000/svg">
<path d="M51.2656 17.508C51.2622 17.4952 51.2581 17.4829 51.2539 17.4705C51.2363 17.4142 51.2111 17.3606 51.1789 17.3111L45.0064 8.10561V2.36511C45.0067 2.23538 44.9684 2.10848 44.8966 2.00046C44.8247 1.89244 44.7225 1.80814 44.6027 1.75822C44.483 1.70829 44.3511 1.69499 44.2238 1.71998C44.0965 1.74497 43.9794 1.80713 43.8874 1.89861L42.1392 3.62849L40.4112 1.90086C40.2881 1.77787 40.1212 1.70879 39.9471 1.70879C39.7731 1.70879 39.6062 1.77787 39.4831 1.90086L37.7581 3.62586L36.0331 1.90086C35.9099 1.77787 35.743 1.70879 35.569 1.70879C35.395 1.70879 35.2281 1.77787 35.1049 1.90086L33.3799 3.62586L31.6549 1.90086C31.5319 1.77789 31.365 1.70882 31.1911 1.70882C31.0171 1.70882 30.8503 1.77789 30.7272 1.90086L28.9999 3.62624L27.2749 1.90124C27.1519 1.77827 26.985 1.70919 26.8111 1.70919C26.6371 1.70919 26.4702 1.77827 26.3472 1.90124L24.6222 3.62624L22.8972 1.90124C22.7741 1.77825 22.6072 1.70916 22.4331 1.70916C22.2591 1.70916 22.0922 1.77825 21.9691 1.90124L20.2441 3.62624L18.5191 1.90124C18.3959 1.77825 18.229 1.70916 18.055 1.70916C17.881 1.70916 17.7141 1.77825 17.5909 1.90124L15.8607 3.62849L14.1124 1.89861C14.0204 1.80751 13.9034 1.74569 13.7763 1.72092C13.6492 1.69615 13.5176 1.70955 13.3981 1.75942C13.2786 1.8093 13.1765 1.89343 13.1047 2.00121C13.0329 2.10899 12.9946 2.23561 12.9946 2.36511V8.10561L6.82207 17.3111C6.79214 17.3568 6.76796 17.4061 6.75007 17.4577C6.74482 17.4716 6.74107 17.4851 6.73694 17.499C6.72608 17.5378 6.71868 17.5774 6.71482 17.6175C6.71482 17.6321 6.71107 17.646 6.71069 17.6606V17.6797V45.6349C6.71064 45.7211 6.72758 45.8064 6.76055 45.8861C6.79351 45.9657 6.84185 46.0381 6.90279 46.099C6.96374 46.16 7.03611 46.2083 7.11575 46.2413C7.19539 46.2742 7.28075 46.2912 7.36694 46.2911H50.6348C50.721 46.2912 50.8064 46.2742 50.886 46.2413C50.9657 46.2083 51.038 46.16 51.099 46.099C51.1599 46.0381 51.2083 45.9657 51.2412 45.8861C51.2742 45.8064 51.2911 45.7211 51.2911 45.6349V17.6797C51.2903 17.6216 51.2817 17.5638 51.2656 17.508ZM43.6928 17.025H39.2929L43.6928 10.4625V17.025ZM45.0053 10.4625L49.4048 17.025H45.0053V10.4625ZM15.4017 5.02086C15.525 5.1428 15.6916 5.21097 15.865 5.21048C16.0384 5.20999 16.2046 5.14087 16.3272 5.01824L18.0522 3.29324L19.7772 5.01824C19.9003 5.14123 20.0672 5.21032 20.2413 5.21032C20.4153 5.21032 20.5822 5.14123 20.7053 5.01824L22.4303 3.29324L24.1553 5.01824C24.2784 5.14123 24.4454 5.21032 24.6194 5.21032C24.7934 5.21032 24.9603 5.14123 25.0834 5.01824L26.8084 3.29324L28.5334 5.01824C28.6565 5.14121 28.8233 5.21029 28.9973 5.21029C29.1713 5.21029 29.3381 5.14121 29.4612 5.01824L31.1862 3.29324L32.9112 5.01824C33.0343 5.14123 33.2012 5.21032 33.3753 5.21032C33.5493 5.21032 33.7162 5.14123 33.8393 5.01824L35.5643 3.29324L37.2893 5.01824C37.4124 5.14123 37.5793 5.21032 37.7534 5.21032C37.9274 5.21032 38.0943 5.14123 38.2174 5.01824L39.9424 3.29324L41.6674 5.01824C41.7902 5.14069 41.9563 5.20968 42.1297 5.21017C42.303 5.21066 42.4695 5.14262 42.5929 5.02086L43.6876 3.93749V7.64999H14.3071V3.93749L15.4017 5.02086ZM13.9999 8.96249H43.1179L37.7131 17.025H8.59507L13.9999 8.96249ZM8.02132 18.3375H37.4067V44.9801H8.02132V18.3375ZM38.7192 18.3375H43.6928V44.9801H38.7192V18.3375ZM45.0053 44.9801V18.3375H49.9786V44.9801H45.0053Z" fill="#0D4137"/>
<path d="M19.3535 41.2092H11.8032C11.6292 41.2092 11.4623 41.2783 11.3392 41.4014C11.2161 41.5245 11.147 41.6914 11.147 41.8654C11.147 42.0395 11.2161 42.2064 11.3392 42.3295C11.4623 42.4525 11.6292 42.5217 11.8032 42.5217H19.3535C19.5275 42.5217 19.6944 42.4525 19.8175 42.3295C19.9406 42.2064 20.0097 42.0395 20.0097 41.8654C20.0097 41.6914 19.9406 41.5245 19.8175 41.4014C19.6944 41.2783 19.5275 41.2092 19.3535 41.2092Z" fill="#0D4137"/>
<path d="M23.7335 41.2092H22.1233C21.9492 41.2092 21.7823 41.2783 21.6593 41.4014C21.5362 41.5245 21.467 41.6914 21.467 41.8654C21.467 42.0395 21.5362 42.2064 21.6593 42.3295C21.7823 42.4525 21.9492 42.5217 22.1233 42.5217H23.7335C23.9076 42.5217 24.0745 42.4525 24.1976 42.3295C24.3207 42.2064 24.3898 42.0395 24.3898 41.8654C24.3898 41.6914 24.3207 41.5245 24.1976 41.4014C24.0745 41.2783 23.9076 41.2092 23.7335 41.2092Z" fill="#0D4137"/>
<path d="M27.9054 26.4869H17.5228C16.1515 26.4869 14.8364 27.0317 13.8667 28.0013C12.897 28.971 12.3523 30.2861 12.3523 31.6574C12.3523 33.0287 12.897 34.3439 13.8667 35.3135C14.8364 36.2832 16.1515 36.8279 17.5228 36.8279H27.9054C29.2767 36.8279 30.5919 36.2832 31.5615 35.3135C32.5312 34.3439 33.0759 33.0287 33.0759 31.6574C33.0759 30.2861 32.5312 28.971 31.5615 28.0013C30.5919 27.0317 29.2767 26.4869 27.9054 26.4869ZM27.9054 35.5154H17.5228C16.4996 35.5154 15.5183 35.109 14.7948 34.3855C14.0713 33.6619 13.6648 32.6806 13.6648 31.6574C13.6648 30.6342 14.0713 29.6529 14.7948 28.9294C15.5183 28.2059 16.4996 27.7994 17.5228 27.7994H27.9054C28.9286 27.7994 29.9099 28.2059 30.6334 28.9294C31.357 29.6529 31.7634 30.6342 31.7634 31.6574C31.7634 32.6806 31.357 33.6619 30.6334 34.3855C29.9099 35.109 28.9286 35.5154 27.9054 35.5154Z" fill="#0D4137"/>
<path d="M1.5255 66.078C1.75883 65.5833 2.10417 65.21 2.5615 64.958C3.02817 64.706 3.60217 64.58 4.2835 64.58V65.546L4.0455 65.532C3.27083 65.532 2.66417 65.77 2.2255 66.246C1.78683 66.722 1.5675 67.3893 1.5675 68.248V72H0.5735V64.636H1.5255V66.078ZM12.4269 68.626H6.26691C6.32291 69.3913 6.61691 70.012 7.14891 70.488C7.68091 70.9547 8.35291 71.188 9.16491 71.188C9.62224 71.188 10.0422 71.1087 10.4249 70.95C10.8076 70.782 11.1389 70.5393 11.4189 70.222L11.9789 70.866C11.6522 71.258 11.2416 71.5567 10.7469 71.762C10.2616 71.9673 9.72491 72.07 9.13691 72.07C8.38091 72.07 7.70891 71.9113 7.12091 71.594C6.54224 71.2673 6.08957 70.8193 5.76291 70.25C5.43624 69.6807 5.27291 69.0367 5.27291 68.318C5.27291 67.5993 5.42691 66.9553 5.73491 66.386C6.05224 65.8167 6.48157 65.3733 7.02291 65.056C7.57357 64.7387 8.18957 64.58 8.87091 64.58C9.55224 64.58 10.1636 64.7387 10.7049 65.056C11.2462 65.3733 11.6709 65.8167 11.9789 66.386C12.2869 66.946 12.4409 67.59 12.4409 68.318L12.4269 68.626ZM8.87091 65.434C8.16157 65.434 7.56424 65.6627 7.07891 66.12C6.60291 66.568 6.33224 67.156 6.26691 67.884H11.4889C11.4236 67.156 11.1482 66.568 10.6629 66.12C10.1869 65.6627 9.58957 65.434 8.87091 65.434ZM18.3421 71.552C18.1555 71.72 17.9221 71.8507 17.6421 71.944C17.3715 72.028 17.0868 72.07 16.7881 72.07C16.0975 72.07 15.5655 71.8833 15.1921 71.51C14.8188 71.1367 14.6321 70.6093 14.6321 69.928V65.476H13.3161V64.636H14.6321V63.026H15.6261V64.636H17.8661V65.476H15.6261V69.872C15.6261 70.3107 15.7335 70.6467 15.9481 70.88C16.1721 71.104 16.4895 71.216 16.9001 71.216C17.1055 71.216 17.3015 71.1833 17.4881 71.118C17.6841 71.0527 17.8521 70.9593 17.9921 70.838L18.3421 71.552ZM20.1516 64.636H21.1456V72H20.1516V64.636ZM20.6556 63.026C20.4503 63.026 20.2776 62.956 20.1376 62.816C19.9976 62.676 19.9276 62.508 19.9276 62.312C19.9276 62.1253 19.9976 61.962 20.1376 61.822C20.2776 61.682 20.4503 61.612 20.6556 61.612C20.861 61.612 21.0336 61.682 21.1736 61.822C21.3136 61.9527 21.3836 62.1113 21.3836 62.298C21.3836 62.5033 21.3136 62.676 21.1736 62.816C21.0336 62.956 20.861 63.026 20.6556 63.026ZM24.8634 66.078C25.0967 65.5833 25.4421 65.21 25.8994 64.958C26.3661 64.706 26.9401 64.58 27.6214 64.58V65.546L27.3834 65.532C26.6087 65.532 26.0021 65.77 25.5634 66.246C25.1247 66.722 24.9054 67.3893 24.9054 68.248V72H23.9114V64.636H24.8634V66.078ZM35.7648 68.626H29.6048C29.6608 69.3913 29.9548 70.012 30.4868 70.488C31.0188 70.9547 31.6908 71.188 32.5028 71.188C32.9601 71.188 33.3801 71.1087 33.7628 70.95C34.1455 70.782 34.4768 70.5393 34.7568 70.222L35.3168 70.866C34.9901 71.258 34.5795 71.5567 34.0848 71.762C33.5995 71.9673 33.0628 72.07 32.4748 72.07C31.7188 72.07 31.0468 71.9113 30.4588 71.594C29.8801 71.2673 29.4275 70.8193 29.1008 70.25C28.7741 69.6807 28.6108 69.0367 28.6108 68.318C28.6108 67.5993 28.7648 66.9553 29.0728 66.386C29.3901 65.8167 29.8195 65.3733 30.3608 65.056C30.9115 64.7387 31.5275 64.58 32.2088 64.58C32.8901 64.58 33.5015 64.7387 34.0428 65.056C34.5841 65.3733 35.0088 65.8167 35.3168 66.386C35.6248 66.946 35.7788 67.59 35.7788 68.318L35.7648 68.626ZM32.2088 65.434C31.4995 65.434 30.9021 65.6627 30.4168 66.12C29.9408 66.568 29.6701 67.156 29.6048 67.884H34.8268C34.7615 67.156 34.4861 66.568 34.0008 66.12C33.5248 65.6627 32.9275 65.434 32.2088 65.434ZM45.2181 64.58C46.1421 64.58 46.8747 64.8507 47.4161 65.392C47.9667 65.924 48.2421 66.7033 48.2421 67.73V72H47.2481V67.828C47.2481 67.0627 47.0567 66.4793 46.6741 66.078C46.2914 65.6767 45.7454 65.476 45.0361 65.476C44.2427 65.476 43.6127 65.714 43.1461 66.19C42.6887 66.6567 42.4601 67.3053 42.4601 68.136V72H41.4661V64.636H42.4181V65.994C42.6887 65.546 43.0621 65.2007 43.5381 64.958C44.0234 64.706 44.5834 64.58 45.2181 64.58ZM53.5167 64.58C54.478 64.58 55.2154 64.8227 55.7287 65.308C56.242 65.784 56.4987 66.4933 56.4987 67.436V72H55.5467V70.852C55.3227 71.2347 54.9914 71.5333 54.5527 71.748C54.1234 71.9627 53.61 72.07 53.0127 72.07C52.1914 72.07 51.538 71.874 51.0527 71.482C50.5674 71.09 50.3247 70.572 50.3247 69.928C50.3247 69.3027 50.5487 68.7987 50.9967 68.416C51.454 68.0333 52.1774 67.842 53.1667 67.842H55.5047V67.394C55.5047 66.7593 55.3274 66.2787 54.9727 65.952C54.618 65.616 54.1 65.448 53.4187 65.448C52.952 65.448 52.504 65.5273 52.0747 65.686C51.6454 65.8353 51.2767 66.0453 50.9687 66.316L50.5207 65.574C50.894 65.2567 51.342 65.014 51.8647 64.846C52.3874 64.6687 52.938 64.58 53.5167 64.58ZM53.1667 71.286C53.7267 71.286 54.2074 71.16 54.6087 70.908C55.01 70.6467 55.3087 70.2733 55.5047 69.788V68.584H53.1947C51.9347 68.584 51.3047 69.0227 51.3047 69.9C51.3047 70.3293 51.468 70.67 51.7947 70.922C52.1214 71.1647 52.5787 71.286 53.1667 71.286ZM17.03 79.382C16.6007 79.382 16.274 79.4987 16.05 79.732C15.8353 79.9653 15.728 80.3107 15.728 80.768V81.636H17.996V82.476H15.756V89H14.762V82.476H13.446V81.636H14.762V80.726C14.762 80.054 14.9533 79.522 15.336 79.13C15.728 78.738 16.2787 78.542 16.988 78.542C17.268 78.542 17.5387 78.584 17.8 78.668C18.0613 78.7427 18.2807 78.8547 18.458 79.004L18.122 79.746C17.8327 79.5033 17.4687 79.382 17.03 79.382ZM25.6271 85.626H19.4671C19.5231 86.3913 19.8171 87.012 20.3491 87.488C20.8811 87.9547 21.5531 88.188 22.3651 88.188C22.8224 88.188 23.2424 88.1087 23.6251 87.95C24.0078 87.782 24.3391 87.5393 24.6191 87.222L25.1791 87.866C24.8524 88.258 24.4418 88.5567 23.9471 88.762C23.4618 88.9673 22.9251 89.07 22.3371 89.07C21.5811 89.07 20.9091 88.9113 20.3211 88.594C19.7424 88.2673 19.2898 87.8193 18.9631 87.25C18.6364 86.6807 18.4731 86.0367 18.4731 85.318C18.4731 84.5993 18.6271 83.9553 18.9351 83.386C19.2524 82.8167 19.6818 82.3733 20.2231 82.056C20.7738 81.7387 21.3898 81.58 22.0711 81.58C22.7524 81.58 23.3638 81.7387 23.9051 82.056C24.4464 82.3733 24.8711 82.8167 25.1791 83.386C25.4871 83.946 25.6411 84.59 25.6411 85.318L25.6271 85.626ZM22.0711 82.434C21.3618 82.434 20.7644 82.6627 20.2791 83.12C19.8031 83.568 19.5324 84.156 19.4671 84.884H24.6891C24.6238 84.156 24.3484 83.568 23.8631 83.12C23.3871 82.6627 22.7898 82.434 22.0711 82.434ZM27.6643 81.636H28.6583V89H27.6643V81.636ZM28.1683 80.026C27.963 80.026 27.7903 79.956 27.6503 79.816C27.5103 79.676 27.4403 79.508 27.4403 79.312C27.4403 79.1253 27.5103 78.962 27.6503 78.822C27.7903 78.682 27.963 78.612 28.1683 78.612C28.3737 78.612 28.5463 78.682 28.6863 78.822C28.8263 78.9527 28.8963 79.1113 28.8963 79.298C28.8963 79.5033 28.8263 79.676 28.6863 79.816C28.5463 79.956 28.3737 80.026 28.1683 80.026ZM32.3761 83.078C32.6094 82.5833 32.9548 82.21 33.4121 81.958C33.8788 81.706 34.4528 81.58 35.1341 81.58V82.546L34.8961 82.532C34.1214 82.532 33.5148 82.77 33.0761 83.246C32.6374 83.722 32.4181 84.3893 32.4181 85.248V89H31.4241V81.636H32.3761V83.078ZM39.4962 81.58C40.4575 81.58 41.1948 81.8227 41.7082 82.308C42.2215 82.784 42.4782 83.4933 42.4782 84.436V89H41.5262V87.852C41.3022 88.2347 40.9708 88.5333 40.5322 88.748C40.1028 88.9627 39.5895 89.07 38.9922 89.07C38.1708 89.07 37.5175 88.874 37.0322 88.482C36.5468 88.09 36.3042 87.572 36.3042 86.928C36.3042 86.3027 36.5282 85.7987 36.9762 85.416C37.4335 85.0333 38.1568 84.842 39.1462 84.842H41.4842V84.394C41.4842 83.7593 41.3068 83.2787 40.9522 82.952C40.5975 82.616 40.0795 82.448 39.3982 82.448C38.9315 82.448 38.4835 82.5273 38.0542 82.686C37.6248 82.8353 37.2562 83.0453 36.9482 83.316L36.5002 82.574C36.8735 82.2567 37.3215 82.014 37.8442 81.846C38.3668 81.6687 38.9175 81.58 39.4962 81.58ZM39.1462 88.286C39.7062 88.286 40.1868 88.16 40.5882 87.908C40.9895 87.6467 41.2882 87.2733 41.4842 86.788V85.584H39.1742C37.9142 85.584 37.2842 86.0227 37.2842 86.9C37.2842 87.3293 37.4475 87.67 37.7742 87.922C38.1008 88.1647 38.5582 88.286 39.1462 88.286Z" fill="#0D4137"/>
<rect x="102" width="2" height="72" rx="1" fill="#0D4137"/>
</svg>
