<svg xmlns="http://www.w3.org/2000/svg" xmlns:xlink="http://www.w3.org/1999/xlink" width="1em" height="1em" preserveAspectRatio="xMidYMid meet" viewBox="0 0 16 16" style="-ms-transform: rotate(360deg) -webkit-transform: rotate(360deg) transform: rotate(360deg)"><path d="M2 5v10c0 .55.45 1 1 1h9c.55 0 1-.45 1-1V5H2zm3 9H4V7h1v7zm2 0H6V7h1v7zm2 0H8V7h1v7zm2 0h-1V7h1v7z" fill="currentColor"/><path d="M13.25 2H10V.75A.753.753 0 0 0 9.25 0h-3.5A.753.753 0 0 0 5 .75V2H1.75a.752.752 0 0 0-.75.75V4h13V2.75a.752.752 0 0 0-.75-.75zM9 2H6v-.987h3V2z" fill="currentColor"/></svg>