<svg width="36" height="36" viewBox="0 0 36 36" fill="none" xmlns="http://www.w3.org/2000/svg">
<path d="M29.7324 0H22.2H13.8H6.2676L0 10.0278V36H13.8H22.2H36V10.0278L29.7324 0ZM29.0676 1.2L34.3176 9.6H22.2V1.2H29.0676ZM18 1.2H21V9.6H18H15V1.2H18ZM15 10.8H15.6C15.6 11.1312 15.8688 11.4 16.2 11.4C16.5312 11.4 16.8 11.1312 16.8 10.8H19.2C19.2 11.1312 19.4688 11.4 19.8 11.4C20.1312 11.4 20.4 11.1312 20.4 10.8H21V12.9516L20.4 12.3516L18 14.7516L15.6 12.3516L15 12.9516V10.8ZM6.9324 1.2H13.8V9.6H1.6824L6.9324 1.2ZM15 34.8V33.2484L15.6 33.8484L18 31.4484L20.4 33.8484L21 33.2484V34.8H15ZM22.2 34.8V30.3516L20.4 32.1516L18 29.7516L15.6 32.1516L13.8 30.3516V34.8H1.2V10.8H13.8V15.8484L15.6 14.0484L18 16.4484L20.4 14.0484L22.2 15.8484V10.8H34.8V34.8H22.2Z" fill="#0D4137"/>
<path d="M12 28.8H24V18H12V28.8ZM13.2 19.2H22.8V27.6H13.2V19.2Z" fill="#0D4137"/>
<path d="M18.6 25.2H15C14.6688 25.2 14.4 25.4682 14.4 25.8C14.4 26.1318 14.6688 26.4 15 26.4H18.6C18.9312 26.4 19.2 26.1318 19.2 25.8C19.2 25.4682 18.9312 25.2 18.6 25.2Z" fill="#0D4137"/>
<path d="M21 25.2H20.4C20.0688 25.2 19.8 25.4682 19.8 25.8C19.8 26.1318 20.0688 26.4 20.4 26.4H21C21.3312 26.4 21.6 26.1318 21.6 25.8C21.6 25.4682 21.3312 25.2 21 25.2Z" fill="#0D4137"/>
<path d="M21 20.4H17.4C17.0688 20.4 16.8 20.6682 16.8 21C16.8 21.3318 17.0688 21.6 17.4 21.6H21C21.3312 21.6 21.6 21.3318 21.6 21C21.6 20.6682 21.3312 20.4 21 20.4Z" fill="#0D4137"/>
<path d="M20.9999 22.8H19.8C19.4688 22.8 19.2 23.0682 19.2 23.4C19.2 23.7318 19.4688 24 19.8 24H20.9999C21.3311 24 21.5999 23.7318 21.5999 23.4C21.5999 23.0682 21.3311 22.8 20.9999 22.8Z" fill="#0D4137"/>
<path d="M15 24H16.2C16.5312 24 16.8 23.7318 16.8 23.4C16.8 23.0682 16.5312 22.8 16.2 22.8H15C14.6688 22.8 14.4 23.0682 14.4 23.4C14.4 23.7318 14.6688 24 15 24Z" fill="#0D4137"/>
<path d="M15 21.6H15.6C15.9312 21.6 16.2 21.3318 16.2 21C16.2 20.6682 15.9312 20.4 15.6 20.4H15C14.6688 20.4 14.4 20.6682 14.4 21C14.4 21.3318 14.6688 21.6 15 21.6Z" fill="#0D4137"/>
<path d="M18.426 23.826C18.534 23.712 18.6 23.556 18.6 23.4C18.6 23.244 18.534 23.0874 18.426 22.974C18.198 22.752 17.796 22.752 17.574 22.974C17.466 23.0874 17.4 23.2374 17.4 23.4C17.4 23.562 17.466 23.712 17.574 23.826C17.688 23.934 17.844 24 18 24C18.156 24 18.312 23.934 18.426 23.826Z" fill="#0D4137"/>
<path d="M18 2.40007C18.3314 2.40007 18.6 2.13144 18.6 1.80007C18.6 1.4687 18.3314 1.20007 18 1.20007C17.6687 1.20007 17.4 1.4687 17.4 1.80007C17.4 2.13144 17.6687 2.40007 18 2.40007Z" fill="#0D4137"/>
<path d="M16.2 4.2C16.5313 4.2 16.8 3.93137 16.8 3.6C16.8 3.26863 16.5313 3 16.2 3C15.8686 3 15.6 3.26863 15.6 3.6C15.6 3.93137 15.8686 4.2 16.2 4.2Z" fill="#0D4137"/>
<path d="M16.2 7.79997C16.5313 7.79997 16.8 7.53135 16.8 7.19998C16.8 6.8686 16.5313 6.59998 16.2 6.59998C15.8686 6.59998 15.6 6.8686 15.6 7.19998C15.6 7.53135 15.8686 7.79997 16.2 7.79997Z" fill="#0D4137"/>
<path d="M18 6.00005C18.3314 6.00005 18.6 5.73142 18.6 5.40005C18.6 5.06868 18.3314 4.80005 18 4.80005C17.6687 4.80005 17.4 5.06868 17.4 5.40005C17.4 5.73142 17.6687 6.00005 18 6.00005Z" fill="#0D4137"/>
<path d="M19.8 4.2C20.1313 4.2 20.4 3.93137 20.4 3.6C20.4 3.26863 20.1313 3 19.8 3C19.4686 3 19.2 3.26863 19.2 3.6C19.2 3.93137 19.4686 4.2 19.8 4.2Z" fill="#0D4137"/>
<path d="M19.8 7.79997C20.1313 7.79997 20.4 7.53135 20.4 7.19998C20.4 6.8686 20.1313 6.59998 19.8 6.59998C19.4686 6.59998 19.2 6.8686 19.2 7.19998C19.2 7.53135 19.4686 7.79997 19.8 7.79997Z" fill="#0D4137"/>
<path d="M18 9.60003C18.3314 9.60003 18.6 9.3314 18.6 9.00003C18.6 8.66865 18.3314 8.40002 18 8.40002C17.6687 8.40002 17.4 8.66865 17.4 9.00003C17.4 9.3314 17.6687 9.60003 18 9.60003Z" fill="#0D4137"/>
<path d="M18 13.2C18.3314 13.2 18.6 12.9314 18.6 12.6C18.6 12.2686 18.3314 12 18 12C17.6687 12 17.4 12.2686 17.4 12.6C17.4 12.9314 17.6687 13.2 18 13.2Z" fill="#0D4137"/>
</svg>
