<svg width="114" height="27" viewBox="0 0 114 27" fill="none" xmlns="http://www.w3.org/2000/svg">
<path d="M14.1653 26.2899C12.2587 26.2899 10.4653 25.9506 8.80109 25.2557C7.12073 24.5609 5.66658 23.6399 4.40632 22.4603C3.16221 21.2808 2.17661 19.8911 1.44954 18.2914C0.722461 16.6917 0.367004 14.9951 0.367004 13.1854C0.367004 11.3918 0.722461 9.69512 1.44954 8.07927C2.17661 6.47958 3.16221 5.08994 4.40632 3.91037C5.65042 2.7308 7.12073 1.79361 8.80109 1.11495C10.4814 0.436297 12.2587 0.0808105 14.1653 0.0808105C15.7487 0.0808105 17.2836 0.323187 18.7863 0.8241C20.2889 1.32501 21.6461 2.03599 22.8902 2.98934L19.6588 7.15823C18.8832 6.56037 18.0269 6.10793 17.0897 5.78476C16.1526 5.46159 15.1832 5.31617 14.1491 5.31617C12.9858 5.31617 11.8871 5.52622 10.8531 5.93019C9.81899 6.33415 8.89802 6.89969 8.12247 7.62683C7.34693 8.35396 6.73295 9.17805 6.28055 10.1314C5.82815 11.0848 5.58579 12.1027 5.58579 13.2015C5.58579 14.3003 5.81199 15.3183 6.28055 16.2716C6.73295 17.225 7.34693 18.0491 8.12247 18.76C8.89802 19.471 9.80283 20.0366 10.8531 20.4567C11.8871 20.8768 12.9858 21.0869 14.1491 21.0869C15.167 21.0869 16.1526 20.9253 17.0897 20.6183C18.0269 20.2951 18.8832 19.8427 19.6588 19.2448L22.8902 23.4137C21.6623 24.3347 20.2889 25.0457 18.7863 25.5466C17.2836 26.0314 15.7487 26.2899 14.1653 26.2899Z" fill="#0D4137"/>
<path d="M37.4155 26.2893C35.6221 26.2893 33.9417 25.95 32.3745 25.2552C30.8072 24.5604 29.4338 23.6232 28.2867 22.4275C27.1234 21.2317 26.2024 19.8259 25.5076 18.2262C24.8129 16.6266 24.4736 14.9299 24.4736 13.1202C24.4736 11.3266 24.8129 9.62993 25.5076 8.0464C26.1862 6.46287 27.1234 5.07324 28.2867 3.87751C29.45 2.68178 30.8072 1.72843 32.3745 1.04977C33.9417 0.354955 35.6221 0.015625 37.4155 0.015625C39.3544 0.015625 41.0347 0.322639 42.4404 0.920503C43.8461 1.51837 45.0741 2.34245 46.1081 3.40891C47.1422 4.45921 48.0147 5.70341 48.7256 7.14152C49.4365 8.56347 50.0505 10.1147 50.5675 11.7629C46.9321 12.5385 43.4745 13.2171 40.1784 13.7988C36.8823 14.3805 33.5055 14.9622 30.064 15.5763C30.5649 17.1598 31.4697 18.4686 32.8107 19.5189C34.1518 20.5531 35.6867 21.0701 37.4155 21.0701C38.4334 21.0701 39.3221 20.9894 40.0815 20.8278C40.8409 20.6662 41.4872 20.4723 42.0365 20.2137C42.5858 19.9714 43.0544 19.6805 43.4583 19.3735C43.8623 19.0503 44.2016 18.7595 44.4924 18.4686L48.2409 22.0558C46.8675 23.4939 45.3003 24.5604 43.5391 25.2552C41.7941 25.95 39.7422 26.2893 37.4155 26.2893ZM37.4155 5.25098C35.7998 5.25098 34.3456 5.70342 33.0531 6.62445C31.7605 7.54548 30.8395 8.72506 30.274 10.1632C31.405 9.98542 32.5522 9.79152 33.7317 9.58146C34.9112 9.3714 36.0745 9.16133 37.1893 8.96743C38.3042 8.77353 39.3867 8.59579 40.4208 8.41804C41.4387 8.2403 42.3758 8.07871 43.216 7.94945C42.4727 7.1092 41.6003 6.44671 40.5985 5.96195C39.6129 5.49336 38.5465 5.25098 37.4155 5.25098Z" fill="#0D4137"/>
<path d="M53.7505 0.500398H58.9854V1.40527C59.9387 0.985152 61.0535 0.661981 62.3138 0.435762C63.5741 0.209544 65.0605 0.0964355 66.757 0.0964355V5.33179C64.8182 5.33179 63.3156 5.49337 62.2653 5.80039C61.2151 6.12356 60.4396 6.4952 59.971 6.93148C59.5025 7.36776 59.2116 7.85251 59.1308 8.35343C59.05 8.8705 59.0016 9.30678 59.0016 9.69458V25.7561H53.7666V0.500398H53.7505Z" fill="#0D4137"/>
<path d="M81.2825 26.2893C79.489 26.2893 77.8087 25.95 76.2414 25.2552C74.6741 24.5604 73.3008 23.6232 72.1536 22.4275C70.9903 21.2317 70.0693 19.8259 69.3746 18.2262C68.6798 16.6266 68.3405 14.9299 68.3405 13.1202C68.3405 11.3266 68.6798 9.62993 69.3746 8.0464C70.0532 6.46287 70.9903 5.07324 72.1536 3.87751C73.3169 2.68178 74.6741 1.72843 76.2414 1.04977C77.8087 0.354955 79.489 0.015625 81.2825 0.015625C83.2213 0.015625 84.9017 0.322639 86.3074 0.920503C87.713 1.51837 88.941 2.34245 89.975 3.40891C91.0091 4.45921 91.8816 5.70341 92.5925 7.14152C93.3034 8.56347 93.9174 10.1147 94.4344 11.7629C90.7991 12.5385 87.3414 13.2171 84.0453 13.7988C80.7493 14.3805 77.3724 14.9622 73.9309 15.5763C74.4318 17.1598 75.3366 18.4686 76.6776 19.5189C78.0187 20.5531 79.5536 21.0701 81.2825 21.0701C82.3004 21.0701 83.189 20.9894 83.9484 20.8278C84.7078 20.6662 85.3541 20.4723 85.9034 20.2137C86.4528 19.9714 86.9213 19.6805 87.3253 19.3735C87.7292 19.0503 88.0685 18.7595 88.3593 18.4686L92.1078 22.0558C90.7344 23.4939 89.1672 24.5604 87.406 25.2552C85.6611 25.95 83.6091 26.2893 81.2825 26.2893ZM81.2825 5.25098C79.6667 5.25098 78.2126 5.70342 76.92 6.62445C75.6274 7.54548 74.7065 8.72506 74.141 10.1632C75.272 9.98542 76.4191 9.79152 77.5986 9.58146C78.7781 9.3714 79.9414 9.16133 81.0563 8.96743C82.1873 8.77353 83.2536 8.59579 84.2877 8.41804C85.3056 8.2403 86.2427 8.07871 87.0829 7.94945C86.3397 7.1092 85.4672 6.44671 84.4654 5.96195C83.4798 5.49336 82.4135 5.25098 81.2825 5.25098Z" fill="#0D4137"/>
<path d="M103.903 26.2893C102.465 26.2893 101.107 25.9985 99.8309 25.4491C98.5545 24.8836 97.472 24.0918 96.551 23.0738L100.461 19.5836C100.849 20.0683 101.334 20.44 101.948 20.6985C102.545 20.9409 103.192 21.0701 103.903 21.0701C104.145 21.0701 104.533 21.0378 105.034 20.957C105.551 20.8924 106.051 20.747 106.536 20.5369C107.021 20.3269 107.457 20.0198 107.813 19.6159C108.168 19.2119 108.297 18.6625 108.233 17.9516C108.168 17.4668 107.748 16.9982 106.989 16.5458C106.229 16.1095 105.276 15.6409 104.113 15.14C103.337 14.8168 102.529 14.4613 101.673 14.0574C100.833 13.6534 100.057 13.1686 99.3462 12.6031C98.6353 12.0375 98.0537 11.3912 97.5689 10.6479C97.0842 9.90463 96.8257 9.01591 96.7449 7.94945C96.6318 6.64061 96.8095 5.49336 97.2458 4.50769C97.682 3.52202 98.3122 2.69794 99.12 2.01928C99.9279 1.35678 100.881 0.855869 101.98 0.516541C103.062 0.177212 104.21 0.015625 105.421 0.015625C106.859 0.015625 108.217 0.29032 109.493 0.839709C110.769 1.3891 111.852 2.16471 112.773 3.19885L108.863 6.73756C108.475 6.23665 107.99 5.865 107.376 5.62262C106.779 5.38025 106.132 5.25098 105.421 5.25098C103.903 5.25098 102.869 5.57415 102.303 6.20433C101.915 6.73756 101.834 7.22231 102.061 7.65859C102.287 8.09487 102.658 8.49884 103.143 8.85432C103.644 9.20981 104.177 9.50067 104.775 9.7592C105.373 10.0016 105.825 10.1955 106.148 10.3409C106.924 10.6964 107.732 11.0842 108.588 11.5043C109.428 11.9244 110.22 12.4254 110.931 13.0071C111.658 13.5888 112.256 14.2836 112.724 15.0753C113.193 15.8671 113.435 16.8366 113.435 17.9516C113.435 19.1796 113.193 20.3107 112.724 21.3287C112.256 22.3467 111.593 23.2354 110.737 23.9625C109.897 24.7058 108.895 25.2714 107.732 25.6753C106.601 26.0954 105.308 26.2893 103.903 26.2893Z" fill="#0D4137"/>
</svg>
