<svg width="15" height="16" viewBox="0 0 15 16" fill="none" xmlns="http://www.w3.org/2000/svg">
<path d="M10 7.57895V2.52632L7.5 0L5 2.52632V4.21053H0V16H15V7.57895H10ZM3.33333 14.3158H1.66667V12.6316H3.33333V14.3158ZM3.33333 10.9474H1.66667V9.26316H3.33333V10.9474ZM3.33333 7.57895H1.66667V5.89474H3.33333V7.57895ZM8.33333 14.3158H6.66667V12.6316H8.33333V14.3158ZM8.33333 10.9474H6.66667V9.26316H8.33333V10.9474ZM8.33333 7.57895H6.66667V5.89474H8.33333V7.57895ZM8.33333 4.21053H6.66667V2.52632H8.33333V4.21053ZM13.3333 14.3158H11.6667V12.6316H13.3333V14.3158ZM13.3333 10.9474H11.6667V9.26316H13.3333V10.9474Z" fill="#0D4137"/>
</svg>
