<svg width="36" height="36" viewBox="0 0 36 36" fill="none" xmlns="http://www.w3.org/2000/svg">
<g clip-path="url(#clip0)">
<path d="M1.9106 11.1075H8.01548C9.06898 11.1075 9.92608 11.9651 9.92608 13.0192V20.0458H12.2096C12.0826 19.5845 12.0356 19.0403 12.0665 18.4071V18.407C12.116 15.731 12.6016 13.4757 13.5098 11.7037C14.2151 10.3279 15.0381 9.50302 15.7443 9.00991C14.9154 8.15766 14.4361 6.94526 14.4361 5.54695C14.4361 3.0311 16.4431 0.984375 18.9098 0.984375C21.3766 0.984375 23.3835 3.0311 23.3835 5.54695C23.3835 5.83826 23.1474 6.0743 22.8562 6.0743H22.4979C22.5309 6.27328 22.5484 6.47606 22.5484 6.68201C22.5484 8.45501 21.2816 9.93684 19.6066 10.2689C19.7821 10.9209 19.8694 11.6896 19.869 12.5629L21.1843 13.6941L24.3846 13.953L28.0762 12.7326C28.4145 12.6201 28.798 12.493 29.1307 12.7329C29.4586 12.9695 29.4586 13.3837 29.4586 13.5198V16.2644C29.4586 16.5557 29.2225 16.7917 28.9313 16.7917H28.3035L29.2664 20.1192C29.3473 20.3989 29.1862 20.6914 28.9064 20.7724C28.6265 20.8537 28.3342 20.6921 28.2532 20.4124L27.2054 16.7917H25.7062C27.5709 22.4781 26.5069 26.2737 24.8715 30.1149H25.8195L29.7677 25.7003L28.9328 22.8161C28.8518 22.5363 29.013 22.2439 29.2927 22.1629C29.5725 22.082 29.865 22.2431 29.946 22.5229L30.7445 25.2817C33.2143 25.2405 35.4235 26.9433 35.9865 29.3932C36.0517 29.677 35.8746 29.9599 35.5909 30.0252L34.8422 30.1975C35.0335 32.1839 33.7253 34.0581 31.7303 34.5173C31.4273 34.5871 31.1217 34.6216 30.8182 34.6216C30.0698 34.6216 29.3346 34.4118 28.6843 34.0042C27.921 33.5259 27.3523 32.8228 27.0446 31.9918L26.4539 32.1278C26.2779 32.1685 26.111 32.1891 25.9442 32.0993C25.789 32.0157 25.6859 31.8649 25.6472 31.6947C25.6101 31.5221 25.5818 31.3466 25.5622 31.1696H14.5331C14.1804 33.3624 12.3147 35.0154 10.0864 35.0154C7.85812 35.0154 5.99231 33.3624 5.63963 31.1696H5.23716C5.23716 31.1696 5.15728 31.1705 5.13907 31.1705C4.98825 31.1705 4.77042 31.1538 4.59155 30.9718C4.50204 30.8808 4.39699 30.7178 4.40508 30.459C4.41991 29.9638 4.49423 29.4853 4.62108 29.0306C4.20103 26.4805 4.60519 24.9273 5.20432 23.7118C4.82555 23.4636 4.57439 23.0358 4.57439 22.5498V21.1004H1.91074C0.85725 21.1004 0.000141144 20.2429 0.000141144 19.1888V13.0191C0 11.9651 0.85704 11.1075 1.9106 11.1075ZM29.2443 33.1106C29.9194 33.5337 30.7181 33.6682 31.4935 33.4897H31.4936C32.9208 33.1612 33.873 31.8525 33.8036 30.4374L28.0834 31.7539C28.3201 32.3111 28.7205 32.7824 29.2443 33.1106ZM26.6056 31.0107L34.8086 29.1231C34.1756 27.3896 32.4721 26.2421 30.61 26.3408L26.5916 30.8339C26.5951 30.8931 26.5997 30.9521 26.6056 31.0107ZM18.6403 21.8212C18.7933 22.2249 18.7933 22.7227 18.7933 23.4117V25.4017H20.7243V22.6716C20.7243 19.585 19.0398 19.0349 18.2838 18.9442H13.1138C13.1346 19.6447 13.2926 20.1426 13.5927 20.4587C13.9425 20.827 14.5409 21.0064 15.4223 21.0073L17.3152 21.0092C17.9902 21.0093 18.436 21.2824 18.6403 21.8212ZM18.7933 26.4563V27.7154C18.7981 27.7154 18.803 27.7154 18.8081 27.7154H22.5539C22.5117 27.3249 22.3901 27.0227 22.1903 26.8136C21.8932 26.5027 21.4747 26.4563 21.2517 26.4563H18.7933ZM13.137 17.8895H17.9329C18.1254 17.2835 18.2971 16.6199 18.4383 15.9379L16.9803 14.9915C16.1843 14.4746 15.7703 13.7443 15.8442 12.9876C15.9097 12.3169 16.3657 11.7178 17.0059 11.4614C17.5904 11.2272 18.2197 11.3008 18.7758 11.6563C18.7299 11.1519 18.6446 10.7016 18.5211 10.3194C18.2963 10.2962 18.0731 10.2523 17.8538 10.1878C17.4075 10.0841 16.9952 9.91898 16.6229 9.69996C15.6072 10.3068 13.3734 12.2749 13.137 17.8895ZM22.2903 5.01968C22.0416 3.33471 20.6204 2.03913 18.9098 2.03913C17.0246 2.03913 15.4908 3.6128 15.4908 5.54702C15.4908 7.1202 16.2452 8.38814 17.4616 8.94614V6.1714C17.4616 5.69095 17.6455 5.10159 18.5212 5.02186C18.537 5.02038 18.553 5.01968 18.569 5.01968H22.2903ZM21.4937 6.68208C21.4937 6.47395 21.47 6.27068 21.4234 6.07437H18.5948C18.5623 6.07788 18.5385 6.08168 18.5215 6.08512C18.5188 6.10467 18.5164 6.1328 18.5164 6.1714V9.25643C18.642 9.27492 18.7684 9.28427 18.8948 9.28434C18.896 9.28434 18.8972 9.28434 18.8983 9.28434C20.3296 9.28301 21.4937 8.11617 21.4937 6.68208ZM22.1773 14.8327L20.9283 14.7317C20.817 14.7227 20.7115 14.6786 20.6267 14.6059L18.3725 12.667L18.3722 12.6667C18.1542 12.4789 17.9215 12.3825 17.695 12.3825C17.5942 12.3825 17.4945 12.4016 17.398 12.4403C17.1193 12.5519 16.9215 12.807 16.8938 13.0901C16.859 13.4464 17.0937 13.8075 17.5544 14.1067L20.0663 15.7371H22.1772V14.8327H22.1773ZM24.406 15.013L23.232 14.9181V15.7373H24.5962C24.773 15.7373 24.8161 15.5903 24.8212 15.4671C24.824 15.3972 24.8174 15.0467 24.406 15.013ZM25.6541 14.6489C25.8129 14.9093 25.8871 15.214 25.8749 15.5102C25.8718 15.5869 25.862 15.6608 25.8484 15.7328C25.8484 15.7343 25.8492 15.7358 25.8489 15.7372H28.4038V13.7352L25.652 14.6448C25.6529 14.6462 25.6533 14.6476 25.6541 14.6489ZM24.5932 16.7919H19.9103C19.8084 16.7919 19.7087 16.7624 19.6232 16.7069L19.3845 16.5519C19.2697 17.0594 19.1389 17.5533 18.9965 18.0198C20.072 18.3372 21.7791 19.3631 21.7791 22.6715V25.4545C22.1491 25.5292 22.5868 25.7017 22.9529 26.0849C23.3388 26.4888 23.5593 27.036 23.6121 27.7154H24.676C25.7479 24.626 26.1556 21.3384 24.5932 16.7919ZM23.724 30.1132C23.9189 29.6649 24.1068 29.2184 24.2837 28.7701H18.8082C18.0985 28.7701 17.7387 28.447 17.7387 27.8099V25.9289V23.9389H13.5763C13.285 23.9389 13.0489 23.7029 13.0489 23.4116C13.0489 23.1203 13.285 22.8843 13.5763 22.8843H17.7349C17.7282 22.5847 17.709 22.3398 17.6541 22.1951C17.6274 22.1247 17.6044 22.0639 17.3147 22.0639L15.4214 22.062C14.2355 22.0608 13.3872 21.774 12.8279 21.1849C12.802 21.1576 12.7775 21.129 12.753 21.1005H9.39867H5.62887V22.5499C5.62887 22.7311 5.78166 22.8843 5.9625 22.8843H11.2124C11.5037 22.8843 11.7397 23.1203 11.7397 23.4116C11.7397 23.7029 11.5037 23.9389 11.2124 23.9389H6.27237C5.85555 24.7126 5.48065 25.6752 5.50294 27.1962C6.54623 25.747 8.23521 24.8151 10.1521 24.8151C11.6915 24.8151 13.136 25.419 14.2196 26.5155C15.1811 27.4884 15.7586 28.7511 15.8774 30.1149L23.724 30.1132ZM10.0863 33.9609C11.7349 33.9609 13.1252 32.7731 13.4616 31.1697H6.71105C7.04749 32.7729 8.43785 33.9609 10.0863 33.9609ZM6.11198 30.1151H14.0605H14.8181C14.5593 27.7305 12.5655 25.8698 10.1521 25.8698C8.0332 25.8698 6.25381 27.267 5.66452 29.2229C5.66262 29.229 5.66072 29.2352 5.65861 29.2414C5.57529 29.522 5.51644 29.814 5.48458 30.1151H6.11198ZM1.05469 19.1888C1.05469 19.6614 1.43866 20.0458 1.9106 20.0458H8.8714V17.3225H1.05469V19.1888ZM1.05469 16.2679H8.8714V15.1463H1.05469V16.2679ZM1.05469 14.0916H8.8714V13.0192C8.8714 12.5466 8.48742 12.1622 8.01548 12.1622H1.9106C1.43866 12.1622 1.05469 12.5467 1.05469 13.0192V14.0916Z" fill="#0D4137"/>
</g>
<defs>
<clipPath id="clip0">
<rect width="36" height="36" fill="white" transform="matrix(-1 0 0 1 36 0)"/>
</clipPath>
</defs>
</svg>
