<svg width="42" height="46" viewBox="0 0 42 46" fill="none" xmlns="http://www.w3.org/2000/svg">
<path d="M17.25 11H18.75V12.5H17.25V11Z" fill="black"/>
<path d="M23.25 11H24.75V12.5H23.25V11Z" fill="black"/>
<path d="M21 17.75C22.2617 17.75 23.25 16.9264 23.25 15.875H21.75C21.75 16.0072 21.4653 16.25 21 16.25C20.5347 16.25 20.25 16.0072 20.25 15.875H18.75C18.75 16.9264 19.7383 17.75 21 17.75Z" fill="black"/>
<path d="M40.1329 32.8222L37.2804 29.9697L36.2197 31.0303L39.0722 33.8828C39.5263 34.3344 39.8863 34.8717 40.1314 35.4634C40.3765 36.0551 40.5018 36.6895 40.5 37.33V41.9375C40.4994 42.4843 40.2819 43.0086 39.8952 43.3952C39.5086 43.7819 38.9843 43.9994 38.4375 44H36.75V40.25H38.25V38.75H35.25V25.25C35.25 25.0511 35.171 24.8603 35.0304 24.7197C34.8897 24.579 34.6989 24.5 34.5 24.5H30.4328L26.1551 21.7778L25.5342 19.2946L25.7967 19.1616C26.3855 18.8657 26.8802 18.4115 27.2252 17.8502C27.5702 17.2888 27.752 16.6423 27.75 15.9834V15.5H28.125C28.821 15.4992 29.4882 15.2224 29.9803 14.7303C30.4724 14.2382 30.7492 13.5709 30.75 12.875V12.125C30.7492 11.4389 30.4801 10.7803 30.0002 10.2899C29.5203 9.79952 28.8677 9.51627 28.1817 9.50066C28.3909 9.11577 28.5003 8.68462 28.5 8.24656V5.9375C28.4984 4.49589 27.925 3.11379 26.9056 2.09442C25.8862 1.07504 24.5041 0.501638 23.0625 0.5H18.9375C17.4959 0.501638 16.1138 1.07504 15.0944 2.09442C14.0751 3.11379 13.5017 4.49589 13.5 5.9375V8.24656C13.4999 8.68466 13.6094 9.11581 13.8188 9.50066C13.1327 9.51615 12.48 9.79935 12 10.2897C11.52 10.7801 11.2508 11.4388 11.25 12.125V12.875C11.2508 13.5709 11.5276 14.2382 12.0197 14.7303C12.5119 15.2224 13.1791 15.4992 13.875 15.5H14.25V16.0118C14.2478 16.6739 14.4311 17.3233 14.7792 17.8865C15.1272 18.4497 15.6262 18.9041 16.2193 19.1982L16.4599 19.3184L15.845 21.7778L11.5673 24.5H7.50002C7.30111 24.5 7.11035 24.579 6.96969 24.7197C6.82904 24.8603 6.75002 25.0511 6.75002 25.25V27.9393L3.96968 30.7197L5.03037 31.7803L6.75002 30.0607V38.75H3.75002V40.25H5.25002V44H3.56252C3.01571 43.9994 2.49146 43.7819 2.1048 43.3952C1.71814 43.0086 1.50064 42.4843 1.50002 41.9375V37.33C1.49828 36.6895 1.62357 36.0551 1.86864 35.4634C2.11371 34.8717 2.47368 34.3344 2.92774 33.8828L3.53027 33.2803L2.46977 32.2197L1.86715 32.8222C1.27333 33.4128 0.80255 34.1153 0.482058 34.8891C0.161565 35.6628 -0.00227365 36.4925 2.38319e-05 37.33V41.9375C0.00109081 42.882 0.376767 43.7875 1.04463 44.4554C1.7125 45.1233 2.61802 45.4989 3.56252 45.5H38.4375C39.382 45.4989 40.2875 45.1233 40.9554 44.4554C41.6233 43.7875 41.999 42.882 42 41.9375V37.33C42.0023 36.4925 41.8385 35.6628 41.518 34.8891C41.1975 34.1153 40.7267 33.4128 40.1329 32.8222ZM18.75 26H23.25V31.25H18.75V26ZM24.3107 24.5L25.6049 23.2063L27.6387 24.5H24.3107ZM15.5942 9.23844C15.4135 9.14377 15.2624 9.00108 15.1576 8.82608C15.0528 8.65108 14.9982 8.45055 15 8.24656V7.69128L17.7219 6.17909C18.7235 5.61836 19.8522 5.32392 21 5.32392C22.1479 5.32392 23.2766 5.61836 24.2782 6.17909L27 7.69128V8.24656C27 8.45018 26.9447 8.64997 26.8401 8.82464C26.7355 8.9993 26.5854 9.1423 26.4058 9.23837C26.2263 9.33445 26.0241 9.38 25.8207 9.37017C25.6173 9.36034 25.4204 9.2955 25.251 9.18256L23.4962 8.01275C22.7576 7.5184 21.8888 7.2545 21 7.2545C20.1112 7.2545 19.2425 7.5184 18.5038 8.01275L16.749 9.18256C16.5803 9.29719 16.3832 9.36306 16.1795 9.37292C15.9757 9.38277 15.7732 9.33624 15.5942 9.23844ZM29.25 12.125V12.875C29.2497 13.1733 29.1311 13.4592 28.9202 13.6701C28.7093 13.881 28.4233 13.9997 28.125 14H27.75V11H28.125C28.4233 11.0003 28.7093 11.119 28.9202 11.3299C29.1311 11.5408 29.2497 11.8267 29.25 12.125ZM18.9375 2H23.0625C24.1065 2.00117 25.1073 2.41638 25.8455 3.15456C26.5836 3.89273 26.9989 4.89357 27 5.9375V5.975L25.0065 4.86791C23.7824 4.18256 22.4029 3.82268 21 3.82268C19.5971 3.82268 18.2176 4.18256 16.9935 4.86791L15 5.975V5.9375C15.0012 4.89357 15.4164 3.89273 16.1546 3.15456C16.8928 2.41638 17.8936 2.00117 18.9375 2ZM13.875 14C13.5768 13.9997 13.2908 13.881 13.0799 13.6701C12.869 13.4592 12.7503 13.1733 12.75 12.875V12.125C12.7503 11.8267 12.869 11.5408 13.0799 11.3299C13.2908 11.119 13.5768 11.0003 13.875 11H14.25V14H13.875ZM15.75 16.0118V10.8451C16.3906 10.938 17.0429 10.7903 17.5811 10.4307L19.3359 9.26075C19.8283 8.93126 20.4074 8.75537 20.9999 8.75537C21.5924 8.75537 22.1716 8.93126 22.664 9.26075L24.4188 10.4307C24.9571 10.7902 25.6094 10.9378 26.25 10.845V15.9834C26.2512 16.3649 26.1459 16.7391 25.9462 17.0641C25.7465 17.3892 25.4601 17.6521 25.1192 17.8234L21.503 19.6546C21.3462 19.7336 21.1732 19.775 20.9976 19.7754C20.8221 19.7759 20.6488 19.7354 20.4916 19.6572L16.8902 17.8566C16.5468 17.6863 16.2579 17.4233 16.0564 17.0972C15.8549 16.7711 15.7487 16.3951 15.75 16.0118ZM19.8207 20.9993C20.1875 21.1817 20.5918 21.2761 21.0014 21.2751C21.411 21.274 21.8148 21.1776 22.1806 20.9933L24.1618 19.9902L24.6695 22.0205L22.1893 24.5H19.8107L17.3306 22.0199L17.8342 20.0056L19.8207 20.9993ZM16.3951 23.2062L17.6893 24.5H14.3612L16.3951 23.2062ZM8.25002 26H17.25V32C17.25 32.1989 17.329 32.3897 17.4697 32.5303C17.6103 32.671 17.8011 32.75 18 32.75H24C24.1989 32.75 24.3897 32.671 24.5304 32.5303C24.671 32.3897 24.75 32.1989 24.75 32V26H33.75V38.75H33C31.5392 38.752 30.129 39.286 29.0333 40.2523C27.9377 41.2185 27.2315 42.5508 27.0469 44H24.75V40.25C24.75 40.0511 24.671 39.8603 24.5304 39.7197C24.3897 39.579 24.1989 39.5 24 39.5H18C17.8011 39.5 17.6103 39.579 17.4697 39.7197C17.329 39.8603 17.25 40.0511 17.25 40.25V44H14.9532C14.7685 42.5508 14.0624 41.2185 12.9667 40.2523C11.871 39.286 10.4609 38.752 9.00002 38.75H8.25002V26ZM6.75002 44V40.25H9.00002C10.0631 40.2514 11.0916 40.6285 11.9036 41.3147C12.7156 42.0009 13.2589 42.952 13.4375 44H6.75002ZM18.75 44V41H23.25V44H18.75ZM35.25 44H28.5626C28.7412 42.952 29.2845 42.0009 30.0965 41.3147C30.9085 40.6285 31.9369 40.2514 33 40.25H35.25V44Z" fill="black"/>
<path d="M9.75 27.5H11.25V29H9.75V27.5Z" fill="black"/>
<path d="M12.75 27.5H15.75V29H12.75V27.5Z" fill="black"/>
<path d="M9.75 30.5H15.75V32H9.75V30.5Z" fill="black"/>
<path d="M27 32.75H29.625C30.3209 32.7492 30.9882 32.4724 31.4803 31.9803C31.9724 31.4882 32.2492 30.8209 32.25 30.125V28.25C32.25 28.0511 32.171 27.8603 32.0303 27.7197C31.8897 27.579 31.6989 27.5 31.5 27.5H28.875C28.1791 27.5008 27.5118 27.7776 27.0197 28.2697C26.5276 28.7618 26.2508 29.4291 26.25 30.125V32C26.25 32.1989 26.329 32.3897 26.4697 32.5303C26.6103 32.671 26.8011 32.75 27 32.75ZM27.75 30.125C27.7503 29.8267 27.869 29.5408 28.0799 29.3299C28.2908 29.119 28.5767 29.0003 28.875 29H30.75V30.125C30.7497 30.4233 30.631 30.7092 30.4201 30.9201C30.2092 31.131 29.9233 31.2497 29.625 31.25H27.75V30.125Z" fill="black"/>
</svg>
