<svg width="73" height="90" viewBox="0 0 73 90" fill="none" xmlns="http://www.w3.org/2000/svg">
<path d="M35.25 11H36.75V12.5H35.25V11Z" fill="black"/>
<path d="M41.25 11H42.75V12.5H41.25V11Z" fill="black"/>
<path d="M39 17.75C40.2617 17.75 41.25 16.9264 41.25 15.875H39.75C39.75 16.0072 39.4653 16.25 39 16.25C38.5347 16.25 38.25 16.0072 38.25 15.875H36.75C36.75 16.9264 37.7383 17.75 39 17.75Z" fill="black"/>
<path d="M58.1329 32.8222L55.2804 29.9697L54.2197 31.0303L57.0722 33.8828C57.5263 34.3344 57.8863 34.8717 58.1314 35.4634C58.3765 36.0551 58.5018 36.6895 58.5 37.33V41.9375C58.4994 42.4843 58.2819 43.0086 57.8952 43.3952C57.5086 43.7819 56.9843 43.9994 56.4375 44H54.75V40.25H56.25V38.75H53.25V25.25C53.25 25.0511 53.171 24.8603 53.0304 24.7197C52.8897 24.579 52.6989 24.5 52.5 24.5H48.4328L44.1551 21.7778L43.5342 19.2946L43.7967 19.1616C44.3855 18.8657 44.8802 18.4115 45.2252 17.8502C45.5702 17.2888 45.752 16.6423 45.75 15.9834V15.5H46.125C46.821 15.4992 47.4882 15.2224 47.9803 14.7303C48.4724 14.2382 48.7492 13.5709 48.75 12.875V12.125C48.7492 11.4389 48.4801 10.7803 48.0002 10.2899C47.5203 9.79952 46.8677 9.51627 46.1817 9.50066C46.3909 9.11577 46.5003 8.68462 46.5 8.24656V5.9375C46.4984 4.49589 45.925 3.11379 44.9056 2.09442C43.8862 1.07504 42.5041 0.501638 41.0625 0.5H36.9375C35.4959 0.501638 34.1138 1.07504 33.0944 2.09442C32.0751 3.11379 31.5017 4.49589 31.5 5.9375V8.24656C31.4999 8.68466 31.6094 9.11581 31.8188 9.50066C31.1327 9.51615 30.48 9.79935 30 10.2897C29.52 10.7801 29.2508 11.4388 29.25 12.125V12.875C29.2508 13.5709 29.5276 14.2382 30.0197 14.7303C30.5119 15.2224 31.1791 15.4992 31.875 15.5H32.25V16.0118C32.2478 16.6739 32.4311 17.3233 32.7792 17.8865C33.1272 18.4497 33.6262 18.9041 34.2193 19.1982L34.4599 19.3184L33.845 21.7778L29.5673 24.5H25.5C25.3011 24.5 25.1103 24.579 24.9697 24.7197C24.829 24.8603 24.75 25.0511 24.75 25.25V27.9393L21.9697 30.7197L23.0304 31.7803L24.75 30.0607V38.75H21.75V40.25H23.25V44H21.5625C21.0157 43.9994 20.4915 43.7819 20.1048 43.3952C19.7181 43.0086 19.5006 42.4843 19.5 41.9375V37.33C19.4983 36.6895 19.6236 36.0551 19.8686 35.4634C20.1137 34.8717 20.4737 34.3344 20.9277 33.8828L21.5303 33.2803L20.4698 32.2197L19.8671 32.8222C19.2733 33.4128 18.8026 34.1153 18.4821 34.8891C18.1616 35.6628 17.9977 36.4925 18 37.33V41.9375C18.0011 42.882 18.3768 43.7875 19.0446 44.4554C19.7125 45.1233 20.618 45.4989 21.5625 45.5H56.4375C57.382 45.4989 58.2875 45.1233 58.9554 44.4554C59.6233 43.7875 59.999 42.882 60 41.9375V37.33C60.0023 36.4925 59.8385 35.6628 59.518 34.8891C59.1975 34.1153 58.7267 33.4128 58.1329 32.8222ZM36.75 26H41.25V31.25H36.75V26ZM42.3107 24.5L43.6049 23.2063L45.6387 24.5H42.3107ZM33.5942 9.23844C33.4135 9.14377 33.2624 9.00108 33.1576 8.82608C33.0528 8.65108 32.9982 8.45055 33 8.24656V7.69128L35.7219 6.17909C36.7235 5.61836 37.8522 5.32392 39 5.32392C40.1479 5.32392 41.2766 5.61836 42.2782 6.17909L45 7.69128V8.24656C45 8.45018 44.9447 8.64997 44.8401 8.82464C44.7355 8.9993 44.5854 9.1423 44.4058 9.23837C44.2263 9.33445 44.0241 9.38 43.8207 9.37017C43.6173 9.36034 43.4204 9.2955 43.251 9.18256L41.4962 8.01275C40.7576 7.5184 39.8888 7.2545 39 7.2545C38.1112 7.2545 37.2425 7.5184 36.5038 8.01275L34.749 9.18256C34.5803 9.29719 34.3832 9.36306 34.1795 9.37292C33.9757 9.38277 33.7732 9.33624 33.5942 9.23844ZM47.25 12.125V12.875C47.2497 13.1733 47.1311 13.4592 46.9202 13.6701C46.7093 13.881 46.4233 13.9997 46.125 14H45.75V11H46.125C46.4233 11.0003 46.7093 11.119 46.9202 11.3299C47.1311 11.5408 47.2497 11.8267 47.25 12.125ZM36.9375 2H41.0625C42.1065 2.00117 43.1073 2.41638 43.8455 3.15456C44.5836 3.89273 44.9989 4.89357 45 5.9375V5.975L43.0065 4.86791C41.7824 4.18256 40.4029 3.82268 39 3.82268C37.5971 3.82268 36.2176 4.18256 34.9935 4.86791L33 5.975V5.9375C33.0012 4.89357 33.4164 3.89273 34.1546 3.15456C34.8928 2.41638 35.8936 2.00117 36.9375 2ZM31.875 14C31.5768 13.9997 31.2908 13.881 31.0799 13.6701C30.869 13.4592 30.7503 13.1733 30.75 12.875V12.125C30.7503 11.8267 30.869 11.5408 31.0799 11.3299C31.2908 11.119 31.5768 11.0003 31.875 11H32.25V14H31.875ZM33.75 16.0118V10.8451C34.3906 10.938 35.0429 10.7903 35.5811 10.4307L37.3359 9.26075C37.8283 8.93126 38.4074 8.75537 38.9999 8.75537C39.5924 8.75537 40.1716 8.93126 40.664 9.26075L42.4188 10.4307C42.9571 10.7902 43.6094 10.9378 44.25 10.845V15.9834C44.2512 16.3649 44.1459 16.7391 43.9462 17.0641C43.7465 17.3892 43.4601 17.6521 43.1192 17.8234L39.503 19.6546C39.3462 19.7336 39.1732 19.775 38.9976 19.7754C38.8221 19.7759 38.6488 19.7354 38.4916 19.6572L34.8902 17.8566C34.5468 17.6863 34.2579 17.4233 34.0564 17.0972C33.8549 16.7711 33.7487 16.3951 33.75 16.0118ZM37.8207 20.9993C38.1875 21.1817 38.5918 21.2761 39.0014 21.2751C39.411 21.274 39.8148 21.1776 40.1806 20.9933L42.1618 19.9902L42.6695 22.0205L40.1893 24.5H37.8107L35.3306 22.0199L35.8342 20.0056L37.8207 20.9993ZM34.3951 23.2062L35.6893 24.5H32.3612L34.3951 23.2062ZM26.25 26H35.25V32C35.25 32.1989 35.329 32.3897 35.4697 32.5303C35.6103 32.671 35.8011 32.75 36 32.75H42C42.1989 32.75 42.3897 32.671 42.5304 32.5303C42.671 32.3897 42.75 32.1989 42.75 32V26H51.75V38.75H51C49.5392 38.752 48.129 39.286 47.0333 40.2523C45.9377 41.2185 45.2315 42.5508 45.0469 44H42.75V40.25C42.75 40.0511 42.671 39.8603 42.5304 39.7197C42.3897 39.579 42.1989 39.5 42 39.5H36C35.8011 39.5 35.6103 39.579 35.4697 39.7197C35.329 39.8603 35.25 40.0511 35.25 40.25V44H32.9532C32.7685 42.5508 32.0624 41.2185 30.9667 40.2523C29.871 39.286 28.4609 38.752 27 38.75H26.25V26ZM24.75 44V40.25H27C28.0631 40.2514 29.0916 40.6285 29.9036 41.3147C30.7156 42.0009 31.2589 42.952 31.4375 44H24.75ZM36.75 44V41H41.25V44H36.75ZM53.25 44H46.5626C46.7412 42.952 47.2845 42.0009 48.0965 41.3147C48.9085 40.6285 49.9369 40.2514 51 40.25H53.25V44Z" fill="black"/>
<path d="M27.75 27.5H29.25V29H27.75V27.5Z" fill="black"/>
<path d="M30.75 27.5H33.75V29H30.75V27.5Z" fill="black"/>
<path d="M27.75 30.5H33.75V32H27.75V30.5Z" fill="black"/>
<path d="M45 32.75H47.625C48.3209 32.7492 48.9882 32.4724 49.4803 31.9803C49.9724 31.4882 50.2492 30.8209 50.25 30.125V28.25C50.25 28.0511 50.171 27.8603 50.0303 27.7197C49.8897 27.579 49.6989 27.5 49.5 27.5H46.875C46.1791 27.5008 45.5118 27.7776 45.0197 28.2697C44.5276 28.7618 44.2508 29.4291 44.25 30.125V32C44.25 32.1989 44.329 32.3897 44.4697 32.5303C44.6103 32.671 44.8011 32.75 45 32.75ZM45.75 30.125C45.7503 29.8267 45.869 29.5408 46.0799 29.3299C46.2908 29.119 46.5767 29.0003 46.875 29H48.75V30.125C48.7497 30.4233 48.631 30.7092 48.4201 30.9201C48.2092 31.131 47.9233 31.2497 47.625 31.25H45.75V30.125Z" fill="black"/>
<path opacity="0.5" d="M1.45226 66.078C1.68559 65.5833 2.03092 65.21 2.48826 64.958C2.95492 64.706 3.52892 64.58 4.21026 64.58V65.546L3.97226 65.532C3.19759 65.532 2.59092 65.77 2.15226 66.246C1.71359 66.722 1.49426 67.3893 1.49426 68.248V72H0.500258V64.636H1.45226V66.078ZM12.3537 68.626H6.19366C6.24966 69.3913 6.54366 70.012 7.07566 70.488C7.60766 70.9547 8.27966 71.188 9.09166 71.188C9.549 71.188 9.969 71.1087 10.3517 70.95C10.7343 70.782 11.0657 70.5393 11.3457 70.222L11.9057 70.866C11.579 71.258 11.1683 71.5567 10.6737 71.762C10.1883 71.9673 9.65166 72.07 9.06366 72.07C8.30766 72.07 7.63566 71.9113 7.04766 71.594C6.469 71.2673 6.01633 70.8193 5.68966 70.25C5.363 69.6807 5.19966 69.0367 5.19966 68.318C5.19966 67.5993 5.35366 66.9553 5.66166 66.386C5.979 65.8167 6.40833 65.3733 6.94966 65.056C7.50033 64.7387 8.11633 64.58 8.79766 64.58C9.479 64.58 10.0903 64.7387 10.6317 65.056C11.173 65.3733 11.5977 65.8167 11.9057 66.386C12.2137 66.946 12.3677 67.59 12.3677 68.318L12.3537 68.626ZM8.79766 65.434C8.08833 65.434 7.491 65.6627 7.00566 66.12C6.52966 66.568 6.259 67.156 6.19366 67.884H11.4157C11.3503 67.156 11.075 66.568 10.5897 66.12C10.1137 65.6627 9.51633 65.434 8.79766 65.434ZM17.4429 72.07C16.7149 72.07 16.0615 71.9113 15.4829 71.594C14.9135 71.2767 14.4655 70.8333 14.1389 70.264C13.8122 69.6853 13.6489 69.0367 13.6489 68.318C13.6489 67.5993 13.8122 66.9553 14.1389 66.386C14.4655 65.8167 14.9135 65.3733 15.4829 65.056C16.0615 64.7387 16.7149 64.58 17.4429 64.58C18.0775 64.58 18.6422 64.706 19.1369 64.958C19.6409 65.2007 20.0375 65.56 20.3269 66.036L19.5849 66.54C19.3422 66.176 19.0342 65.9053 18.6609 65.728C18.2875 65.5413 17.8815 65.448 17.4429 65.448C16.9109 65.448 16.4302 65.5693 16.0009 65.812C15.5809 66.0453 15.2495 66.3813 15.0069 66.82C14.7735 67.2587 14.6569 67.758 14.6569 68.318C14.6569 68.8873 14.7735 69.3913 15.0069 69.83C15.2495 70.2593 15.5809 70.5953 16.0009 70.838C16.4302 71.0713 16.9109 71.188 17.4429 71.188C17.8815 71.188 18.2875 71.0993 18.6609 70.922C19.0342 70.7447 19.3422 70.474 19.5849 70.11L20.3269 70.614C20.0375 71.09 19.6409 71.454 19.1369 71.706C18.6329 71.9487 18.0682 72.07 17.4429 72.07ZM28.5685 68.626H22.4085C22.4645 69.3913 22.7585 70.012 23.2905 70.488C23.8225 70.9547 24.4945 71.188 25.3065 71.188C25.7638 71.188 26.1838 71.1087 26.5665 70.95C26.9492 70.782 27.2805 70.5393 27.5605 70.222L28.1205 70.866C27.7938 71.258 27.3832 71.5567 26.8885 71.762C26.4032 71.9673 25.8665 72.07 25.2785 72.07C24.5225 72.07 23.8505 71.9113 23.2625 71.594C22.6838 71.2673 22.2312 70.8193 21.9045 70.25C21.5778 69.6807 21.4145 69.0367 21.4145 68.318C21.4145 67.5993 21.5685 66.9553 21.8765 66.386C22.1938 65.8167 22.6232 65.3733 23.1645 65.056C23.7152 64.7387 24.3312 64.58 25.0125 64.58C25.6938 64.58 26.3052 64.7387 26.8465 65.056C27.3878 65.3733 27.8125 65.8167 28.1205 66.386C28.4285 66.946 28.5825 67.59 28.5825 68.318L28.5685 68.626ZM25.0125 65.434C24.3032 65.434 23.7058 65.6627 23.2205 66.12C22.7445 66.568 22.4738 67.156 22.4085 67.884H27.6305C27.5652 67.156 27.2898 66.568 26.8045 66.12C26.3285 65.6627 25.7312 65.434 25.0125 65.434ZM34.3997 64.58C35.0904 64.58 35.7157 64.7387 36.2757 65.056C36.8357 65.364 37.2744 65.8027 37.5917 66.372C37.9091 66.9413 38.0677 67.59 38.0677 68.318C38.0677 69.046 37.9091 69.6947 37.5917 70.264C37.2744 70.8333 36.8357 71.2767 36.2757 71.594C35.7157 71.9113 35.0904 72.07 34.3997 72.07C33.7837 72.07 33.2284 71.9393 32.7337 71.678C32.2484 71.4167 31.8564 71.0387 31.5577 70.544V72H30.6057V61.612H31.5997V66.036C31.9077 65.56 32.2997 65.2007 32.7757 64.958C33.2611 64.706 33.8024 64.58 34.3997 64.58ZM34.3297 71.188C34.8431 71.188 35.3097 71.0713 35.7297 70.838C36.1497 70.5953 36.4764 70.2547 36.7097 69.816C36.9524 69.3773 37.0737 68.878 37.0737 68.318C37.0737 67.758 36.9524 67.2587 36.7097 66.82C36.4764 66.3813 36.1497 66.0453 35.7297 65.812C35.3097 65.5693 34.8431 65.448 34.3297 65.448C33.8071 65.448 33.3357 65.5693 32.9157 65.812C32.5051 66.0453 32.1784 66.3813 31.9357 66.82C31.7024 67.2587 31.5857 67.758 31.5857 68.318C31.5857 68.878 31.7024 69.3773 31.9357 69.816C32.1784 70.2547 32.5051 70.5953 32.9157 70.838C33.3357 71.0713 33.8071 71.188 34.3297 71.188ZM42.629 64.58C43.5903 64.58 44.3277 64.8227 44.841 65.308C45.3543 65.784 45.611 66.4933 45.611 67.436V72H44.659V70.852C44.435 71.2347 44.1037 71.5333 43.665 71.748C43.2357 71.9627 42.7223 72.07 42.125 72.07C41.3037 72.07 40.6503 71.874 40.165 71.482C39.6797 71.09 39.437 70.572 39.437 69.928C39.437 69.3027 39.661 68.7987 40.109 68.416C40.5663 68.0333 41.2897 67.842 42.279 67.842H44.617V67.394C44.617 66.7593 44.4397 66.2787 44.085 65.952C43.7303 65.616 43.2123 65.448 42.531 65.448C42.0643 65.448 41.6163 65.5273 41.187 65.686C40.7577 65.8353 40.389 66.0453 40.081 66.316L39.633 65.574C40.0063 65.2567 40.4543 65.014 40.977 64.846C41.4997 64.6687 42.0503 64.58 42.629 64.58ZM42.279 71.286C42.839 71.286 43.3197 71.16 43.721 70.908C44.1223 70.6467 44.421 70.2733 44.617 69.788V68.584H42.307C41.047 68.584 40.417 69.0227 40.417 69.9C40.417 70.3293 40.5803 70.67 40.907 70.922C41.2337 71.1647 41.691 71.286 42.279 71.286ZM58.3869 68.626H52.2269C52.2829 69.3913 52.5769 70.012 53.1089 70.488C53.6409 70.9547 54.3129 71.188 55.1249 71.188C55.5822 71.188 56.0022 71.1087 56.3849 70.95C56.7675 70.782 57.0989 70.5393 57.3789 70.222L57.9389 70.866C57.6122 71.258 57.2015 71.5567 56.7069 71.762C56.2215 71.9673 55.6849 72.07 55.0969 72.07C54.3409 72.07 53.6689 71.9113 53.0809 71.594C52.5022 71.2673 52.0495 70.8193 51.7229 70.25C51.3962 69.6807 51.2329 69.0367 51.2329 68.318C51.2329 67.5993 51.3869 66.9553 51.6949 66.386C52.0122 65.8167 52.4415 65.3733 52.9829 65.056C53.5335 64.7387 54.1495 64.58 54.8309 64.58C55.5122 64.58 56.1235 64.7387 56.6649 65.056C57.2062 65.3733 57.6309 65.8167 57.9389 66.386C58.2469 66.946 58.4009 67.59 58.4009 68.318L58.3869 68.626ZM54.8309 65.434C54.1215 65.434 53.5242 65.6627 53.0389 66.12C52.5629 66.568 52.2922 67.156 52.2269 67.884H57.4489C57.3835 67.156 57.1082 66.568 56.6229 66.12C56.1469 65.6627 55.5495 65.434 54.8309 65.434ZM69.6081 64.58C70.5321 64.58 71.2554 64.846 71.7781 65.378C72.3101 65.91 72.5761 66.694 72.5761 67.73V72H71.5821V67.828C71.5821 67.0627 71.3954 66.4793 71.0221 66.078C70.6581 65.6767 70.1401 65.476 69.4681 65.476C68.7028 65.476 68.1008 65.714 67.6621 66.19C67.2234 66.6567 67.0041 67.3053 67.0041 68.136V72H66.0101V67.828C66.0101 67.0627 65.8234 66.4793 65.4501 66.078C65.0861 65.6767 64.5634 65.476 63.8821 65.476C63.1261 65.476 62.5241 65.714 62.0761 66.19C61.6374 66.6567 61.4181 67.3053 61.4181 68.136V72H60.4241V64.636H61.3761V65.98C61.6374 65.532 62.0014 65.1867 62.4681 64.944C62.9348 64.7013 63.4714 64.58 64.0781 64.58C64.6941 64.58 65.2261 64.7107 65.6741 64.972C66.1314 65.2333 66.4721 65.6207 66.6961 66.134C66.9668 65.6487 67.3541 65.2707 67.8581 65C68.3714 64.72 68.9548 64.58 69.6081 64.58ZM25.311 89.07C24.583 89.07 23.9297 88.9113 23.351 88.594C22.7817 88.2767 22.3337 87.8333 22.007 87.264C21.6804 86.6853 21.517 86.0367 21.517 85.318C21.517 84.5993 21.6804 83.9553 22.007 83.386C22.3337 82.8167 22.7817 82.3733 23.351 82.056C23.9297 81.7387 24.583 81.58 25.311 81.58C25.9457 81.58 26.5104 81.706 27.005 81.958C27.509 82.2007 27.9057 82.56 28.195 83.036L27.453 83.54C27.2104 83.176 26.9024 82.9053 26.529 82.728C26.1557 82.5413 25.7497 82.448 25.311 82.448C24.779 82.448 24.2984 82.5693 23.869 82.812C23.449 83.0453 23.1177 83.3813 22.875 83.82C22.6417 84.2587 22.525 84.758 22.525 85.318C22.525 85.8873 22.6417 86.3913 22.875 86.83C23.1177 87.2593 23.449 87.5953 23.869 87.838C24.2984 88.0713 24.779 88.188 25.311 88.188C25.7497 88.188 26.1557 88.0993 26.529 87.922C26.9024 87.7447 27.2104 87.474 27.453 87.11L28.195 87.614C27.9057 88.09 27.509 88.454 27.005 88.706C26.501 88.9487 25.9364 89.07 25.311 89.07ZM32.7237 81.58C33.6851 81.58 34.4224 81.8227 34.9357 82.308C35.4491 82.784 35.7057 83.4933 35.7057 84.436V89H34.7537V87.852C34.5297 88.2347 34.1984 88.5333 33.7597 88.748C33.3304 88.9627 32.8171 89.07 32.2197 89.07C31.3984 89.07 30.7451 88.874 30.2597 88.482C29.7744 88.09 29.5317 87.572 29.5317 86.928C29.5317 86.3027 29.7557 85.7987 30.2037 85.416C30.6611 85.0333 31.3844 84.842 32.3737 84.842H34.7117V84.394C34.7117 83.7593 34.5344 83.2787 34.1797 82.952C33.8251 82.616 33.3071 82.448 32.6257 82.448C32.1591 82.448 31.7111 82.5273 31.2817 82.686C30.8524 82.8353 30.4837 83.0453 30.1757 83.316L29.7277 82.574C30.1011 82.2567 30.5491 82.014 31.0717 81.846C31.5944 81.6687 32.1451 81.58 32.7237 81.58ZM32.3737 88.286C32.9337 88.286 33.4144 88.16 33.8157 87.908C34.2171 87.6467 34.5157 87.2733 34.7117 86.788V85.584H32.4017C31.1417 85.584 30.5117 86.0227 30.5117 86.9C30.5117 87.3293 30.6751 87.67 31.0017 87.922C31.3284 88.1647 31.7857 88.286 32.3737 88.286ZM40.3795 89.07C39.7822 89.07 39.2082 88.986 38.6575 88.818C38.1162 88.6407 37.6915 88.4213 37.3835 88.16L37.8315 87.376C38.1395 87.6187 38.5269 87.8193 38.9935 87.978C39.4602 88.1273 39.9455 88.202 40.4495 88.202C41.1215 88.202 41.6162 88.0993 41.9335 87.894C42.2602 87.6793 42.4235 87.3807 42.4235 86.998C42.4235 86.7273 42.3349 86.5173 42.1575 86.368C41.9802 86.2093 41.7562 86.0927 41.4855 86.018C41.2149 85.934 40.8555 85.8547 40.4075 85.78C39.8102 85.668 39.3295 85.556 38.9655 85.444C38.6015 85.3227 38.2889 85.122 38.0275 84.842C37.7755 84.562 37.6495 84.1747 37.6495 83.68C37.6495 83.064 37.9062 82.56 38.4195 82.168C38.9329 81.776 39.6469 81.58 40.5615 81.58C41.0375 81.58 41.5135 81.6453 41.9895 81.776C42.4655 81.8973 42.8575 82.0607 43.1655 82.266L42.7315 83.064C42.1249 82.644 41.4015 82.434 40.5615 82.434C39.9269 82.434 39.4462 82.546 39.1195 82.77C38.8022 82.994 38.6435 83.288 38.6435 83.652C38.6435 83.932 38.7322 84.156 38.9095 84.324C39.0962 84.492 39.3249 84.618 39.5955 84.702C39.8662 84.7767 40.2395 84.856 40.7155 84.94C41.3035 85.052 41.7749 85.164 42.1295 85.276C42.4842 85.388 42.7875 85.5793 43.0395 85.85C43.2915 86.1207 43.4175 86.494 43.4175 86.97C43.4175 87.614 43.1469 88.1273 42.6055 88.51C42.0735 88.8833 41.3315 89.07 40.3795 89.07ZM47.8311 81.58C48.7925 81.58 49.5298 81.8227 50.0431 82.308C50.5565 82.784 50.8131 83.4933 50.8131 84.436V89H49.8611V87.852C49.6371 88.2347 49.3058 88.5333 48.8671 88.748C48.4378 88.9627 47.9245 89.07 47.3271 89.07C46.5058 89.07 45.8525 88.874 45.3671 88.482C44.8818 88.09 44.6391 87.572 44.6391 86.928C44.6391 86.3027 44.8631 85.7987 45.3111 85.416C45.7685 85.0333 46.4918 84.842 47.4811 84.842H49.8191V84.394C49.8191 83.7593 49.6418 83.2787 49.2871 82.952C48.9325 82.616 48.4145 82.448 47.7331 82.448C47.2665 82.448 46.8185 82.5273 46.3891 82.686C45.9598 82.8353 45.5911 83.0453 45.2831 83.316L44.8351 82.574C45.2085 82.2567 45.6565 82.014 46.1791 81.846C46.7018 81.6687 47.2525 81.58 47.8311 81.58ZM47.4811 88.286C48.0411 88.286 48.5218 88.16 48.9231 87.908C49.3245 87.6467 49.6231 87.2733 49.8191 86.788V85.584H47.5091C46.2491 85.584 45.6191 86.0227 45.6191 86.9C45.6191 87.3293 45.7825 87.67 46.1091 87.922C46.4358 88.1647 46.8931 88.286 47.4811 88.286Z" fill="black"/>
</svg>
