<svg width="122" height="32" viewBox="0 0 122 32" fill="none" xmlns="http://www.w3.org/2000/svg">
<path d="M27.3394 0C20.3596 0 14.6789 5.56584 14.6789 12.4045H14.6716C14.6716 13.6773 14.2459 14.8854 13.4312 15.8921C11.8239 17.8769 8.94679 18.5384 6.59817 17.4598C4.98349 16.7191 3.83119 15.324 3.4422 13.6342C3.05321 11.9371 3.48624 10.1897 4.63119 8.82337C5.69541 7.55056 7.31743 6.85303 8.96147 6.83865C9.01284 7.04 9.08624 7.24135 9.19633 7.42831C9.51193 7.96045 10.0183 8.34157 10.6275 8.49977C10.833 8.55011 11.0385 8.57888 11.2367 8.57888C12.2789 8.57888 13.2257 7.89573 13.5119 6.86742C13.6734 6.27056 13.5927 5.65213 13.2771 5.12C13.0055 4.65258 12.5725 4.31461 12.0661 4.12764L12.0734 4.11326C8.5578 2.84764 4.45505 3.93348 2.07706 6.76674C0.711927 8.39191 0 10.3766 0 12.4045C0 23.2126 8.96881 32 20 32C31.0312 32 40 23.2126 40 12.4045C40 5.56584 34.3193 0 27.3394 0ZM27.3394 3.23595C32.4991 3.23595 36.6972 7.34921 36.6972 12.4045C36.6972 17.4598 32.4991 21.573 27.3394 21.573C22.1798 21.573 17.9817 17.4598 17.9817 12.4045C17.9817 7.34921 22.1798 3.23595 27.3394 3.23595ZM5.50459 20.516C6.61284 20.9762 7.78716 21.2063 8.95413 21.2063C11.633 21.2063 14.2826 20.0413 16.0073 17.9128C18.0844 21.9973 22.378 24.809 27.3394 24.809C28.8881 24.809 30.3706 24.5213 31.7431 24.018C28.7266 26.9519 24.5725 28.764 20 28.764C13.8055 28.764 8.38899 25.4346 5.50459 20.516Z" fill="white"/>
<path d="M60.54 24C59.36 24 58.25 23.7934 57.22 23.3703C56.18 22.9471 55.28 22.3862 54.5 21.6679C53.73 20.9496 53.12 20.1033 52.67 19.1292C52.22 18.1452 52 17.112 52 16.0197C52 14.9274 52.22 13.8942 52.67 12.9102C53.12 11.9361 53.73 11.0898 54.5 10.3715C55.28 9.64332 56.18 9.08243 57.22 8.65931C58.26 8.24602 59.36 8.02954 60.54 8.02954C61.52 8.02954 62.47 8.17714 63.4 8.48219C64.33 8.78723 65.17 9.22019 65.94 9.80076L63.94 12.3395C63.46 11.9754 62.93 11.6999 62.35 11.5031C61.77 11.3063 61.17 11.2177 60.53 11.2177C59.81 11.2177 59.13 11.3457 58.49 11.5917C57.85 11.8377 57.29 12.1821 56.81 12.615C56.33 13.0578 55.95 13.5695 55.66 14.1501C55.38 14.7306 55.23 15.3506 55.23 16.0197C55.23 16.6888 55.37 17.3088 55.66 17.8893C55.94 18.4699 56.32 18.9717 56.8 19.4047C57.28 19.8377 57.84 20.1821 58.49 20.4379C59.13 20.6937 59.81 20.8217 60.53 20.8217C61.16 20.8217 61.77 20.7233 62.35 20.5363C62.93 20.3395 63.46 20.064 63.94 19.6999L65.94 22.2386C65.18 22.7995 64.33 23.2325 63.4 23.5375C62.47 23.8426 61.52 24 60.54 24Z" fill="white"/>
<path d="M74.93 24C73.82 24 72.78 23.7934 71.81 23.3702C70.84 22.9471 69.99 22.3764 69.28 21.6482C68.56 20.92 67.99 20.064 67.56 19.0898C67.13 18.1156 66.92 17.0824 66.92 15.9803C66.92 14.8881 67.13 13.8549 67.56 12.8905C67.98 11.9262 68.56 11.08 69.28 10.3518C70 9.62362 70.84 9.04305 71.81 8.62977C72.78 8.20664 73.82 8 74.93 8C76.13 8 77.17 8.18696 78.04 8.55105C78.91 8.91513 79.67 9.41697 80.31 10.0664C80.95 10.706 81.49 11.4637 81.93 12.3395C82.37 13.2054 82.75 14.1501 83.07 15.1538C80.82 15.6261 78.68 16.0394 76.64 16.3936C74.6 16.7478 72.51 17.1021 70.38 17.476C70.69 18.4403 71.25 19.2374 72.08 19.877C72.91 20.5068 73.86 20.8216 74.93 20.8216C75.56 20.8216 76.11 20.7724 76.58 20.674C77.05 20.5756 77.45 20.4576 77.79 20.3001C78.13 20.1525 78.42 19.9754 78.67 19.7884C78.92 19.5916 79.13 19.4145 79.31 19.2374L81.63 21.4219C80.78 22.2977 79.81 22.9471 78.72 23.3702C77.63 23.7934 76.37 24 74.93 24ZM74.93 11.1882C73.93 11.1882 73.03 11.4637 72.23 12.0246C71.43 12.5855 70.86 13.3038 70.51 14.1796C71.21 14.0713 71.92 13.9533 72.65 13.8253C73.38 13.6974 74.1 13.5695 74.79 13.4514C75.49 13.3333 76.15 13.2251 76.79 13.1169C77.43 13.0086 78 12.92 78.53 12.8315C78.07 12.3198 77.53 11.9164 76.91 11.6212C76.29 11.3358 75.63 11.1882 74.93 11.1882Z" fill="white"/>
<path d="M85.04 8.2952H88.28V8.84624C88.87 8.5904 89.56 8.3936 90.34 8.25584C91.12 8.11808 92.04 8.04919 93.09 8.04919V11.2374C91.89 11.2374 90.96 11.3358 90.31 11.5227C89.66 11.7196 89.18 11.9459 88.89 12.2116C88.6 12.4772 88.42 12.7724 88.37 13.0775C88.32 13.3924 88.29 13.6581 88.29 13.8942V23.6753H85.05V8.2952H85.04Z" fill="white"/>
<path d="M102.08 24C100.97 24 99.93 23.7934 98.96 23.3702C97.99 22.9471 97.14 22.3764 96.43 21.6482C95.71 20.92 95.14 20.064 94.71 19.0898C94.28 18.1156 94.07 17.0824 94.07 15.9803C94.07 14.8881 94.28 13.8549 94.71 12.8905C95.13 11.9262 95.71 11.08 96.43 10.3518C97.15 9.62362 97.99 9.04305 98.96 8.62977C99.92 8.20664 100.97 8 102.08 8C103.28 8 104.32 8.18696 105.19 8.55105C106.06 8.91513 106.82 9.41697 107.46 10.0664C108.1 10.706 108.64 11.4637 109.08 12.3395C109.52 13.2054 109.9 14.1501 110.22 15.1538C107.97 15.6261 105.83 16.0394 103.79 16.3936C101.75 16.7478 99.66 17.1021 97.53 17.476C97.84 18.4403 98.4 19.2374 99.23 19.877C100.06 20.5166 101.01 20.8216 102.08 20.8216C102.71 20.8216 103.26 20.7724 103.73 20.674C104.2 20.5756 104.6 20.4576 104.94 20.3001C105.28 20.1525 105.57 19.9754 105.82 19.7884C106.07 19.5916 106.28 19.4145 106.46 19.2374L108.78 21.4219C107.93 22.2977 106.96 22.9471 105.87 23.3702C104.78 23.7934 103.52 24 102.08 24ZM102.08 11.1882C101.08 11.1882 100.18 11.4637 99.38 12.0246C98.58 12.5855 98.01 13.3038 97.66 14.1796C98.36 14.0713 99.07 13.9533 99.8 13.8253C100.53 13.6974 101.25 13.5695 101.94 13.4514C102.64 13.3333 103.3 13.2251 103.94 13.1169C104.57 13.0086 105.15 12.9102 105.67 12.8315C105.21 12.3198 104.67 11.9164 104.05 11.6212C103.44 11.3358 102.78 11.1882 102.08 11.1882Z" fill="white"/>
<path d="M116.08 24C115.19 24 114.35 23.8229 113.56 23.4883C112.77 23.1439 112.1 22.6617 111.53 22.0418L113.95 19.9164C114.19 20.2116 114.49 20.4379 114.87 20.5953C115.24 20.7429 115.64 20.8216 116.08 20.8216C116.23 20.8216 116.47 20.802 116.78 20.7528C117.1 20.7134 117.41 20.6248 117.71 20.4969C118.01 20.369 118.28 20.182 118.5 19.936C118.72 19.69 118.8 19.3555 118.76 18.9225C118.72 18.6273 118.46 18.3419 117.99 18.0664C117.52 17.8007 116.93 17.5154 116.21 17.2103C115.73 17.0135 115.23 16.797 114.7 16.551C114.18 16.305 113.7 16.0098 113.26 15.6654C112.82 15.321 112.46 14.9274 112.16 14.4748C111.86 14.0221 111.7 13.4809 111.65 12.8315C111.6 12.0344 111.7 11.3358 111.97 10.7355C112.24 10.1353 112.63 9.63346 113.13 9.22017C113.63 8.81673 114.22 8.51169 114.9 8.30504C115.58 8.0984 116.29 8 117.03 8C117.92 8 118.76 8.16728 119.55 8.50185C120.34 8.83641 121.01 9.30873 121.58 9.9385L119.16 12.0935C118.92 11.7884 118.62 11.5621 118.24 11.4145C117.87 11.2669 117.47 11.1882 117.03 11.1882C116.09 11.1882 115.45 11.385 115.1 11.7688C114.86 12.0935 114.81 12.3887 114.95 12.6544C115.09 12.92 115.32 13.1661 115.62 13.3825C115.93 13.599 116.26 13.7761 116.63 13.9336C117 14.0812 117.28 14.1993 117.48 14.2878C117.96 14.5043 118.46 14.7405 118.99 14.9963C119.51 15.2522 120 15.5572 120.44 15.9114C120.89 16.2657 121.26 16.6888 121.55 17.171C121.85 17.6433 122 18.2239 122 18.9127C122 19.6605 121.85 20.3493 121.56 20.9692C121.27 21.5892 120.86 22.1304 120.33 22.5732C119.81 23.0258 119.19 23.3702 118.47 23.6162C117.75 23.8721 116.95 24 116.08 24Z" fill="white"/>
</svg>
