<svg width="118" height="78" viewBox="0 0 118 78" fill="none" xmlns="http://www.w3.org/2000/svg">
<path d="M80.6514 0C60.0609 0 43.3027 13.5667 43.3027 30.236H43.2811C43.2811 33.3384 42.0253 36.2831 39.622 38.7371C34.8804 43.5748 26.393 45.1874 19.4646 42.5582C14.7013 40.7528 11.302 37.3524 10.1545 33.2333C9.00697 29.0966 10.2844 24.8373 13.662 21.507C16.8015 18.4045 21.5864 16.7043 26.4363 16.6692C26.5879 17.16 26.8044 17.6508 27.1292 18.1065C28.0602 19.4036 29.5541 20.3326 31.3512 20.7182C31.9574 20.8409 32.5637 20.911 33.1483 20.911C36.2228 20.911 39.0158 19.2458 39.8602 16.7393C40.3365 15.2845 40.0983 13.7771 39.1673 12.48C38.3662 11.3407 37.0888 10.5169 35.5949 10.0611L35.6165 10.0261C25.2455 6.94112 13.1424 9.58786 6.12734 16.4939C2.10018 20.4553 0 25.293 0 30.236C0 56.5807 26.458 78 59 78C91.542 78 118 56.5807 118 30.236C118 13.5667 101.242 0 80.6514 0ZM80.6514 7.88764C95.8723 7.88764 108.257 17.9137 108.257 30.236C108.257 42.5582 95.8723 52.5843 80.6514 52.5843C65.4305 52.5843 53.0459 42.5582 53.0459 30.236C53.0459 17.9137 65.4305 7.88764 80.6514 7.88764ZM16.2385 50.0076C19.5079 51.1294 22.9721 51.6903 26.4147 51.6903C34.3174 51.6903 42.1336 48.8508 47.2216 43.6625C53.349 53.6184 66.015 60.4719 80.6514 60.4719C85.2198 60.4719 89.5934 59.7708 93.6422 58.5438C84.7435 65.6953 72.4888 70.1124 59 70.1124C40.7262 70.1124 24.7475 61.9969 16.2385 50.0076Z" fill="white"/>
</svg>
