<svg width="86" height="71" viewBox="0 0 86 71" fill="none" xmlns="http://www.w3.org/2000/svg">
<path d="M58.9739 0.637939C44.2708 0.637939 32.3145 12.5952 32.3145 27.2995H32.2983C32.2983 30.4342 31.2643 33.4074 29.2931 35.8796C25.3992 40.7756 18.4677 42.4076 12.7965 39.7577C8.90263 37.9317 6.12359 34.49 5.18647 30.3211C4.24935 26.1522 5.28342 21.8217 8.0463 18.4769C10.8577 15.0675 15.2524 13.3062 19.5664 13.6132C19.5826 14.2757 19.7441 14.9382 20.0834 15.5199C20.6166 16.4409 21.473 17.0873 22.4909 17.362C22.8302 17.4589 23.1856 17.4912 23.5249 17.4912C25.2699 17.4912 26.8856 16.3278 27.3542 14.5504C27.6289 13.5324 27.4835 12.4498 26.9503 11.5449C26.4817 10.737 25.7708 10.1553 24.9145 9.83212V9.81596C17.6922 7.13365 9.19347 9.42816 4.29782 15.3906C1.47031 18.8162 0 23.0175 0 27.2995C0 50.907 19.211 70.1195 42.8167 70.1195C66.4224 70.1195 85.6333 50.907 85.6333 27.2995C85.6333 12.5952 73.677 0.637939 58.9739 0.637939ZM58.9739 5.48549C70.9949 5.48549 80.7862 15.2775 80.7862 27.2995C80.7862 39.3214 70.9949 49.1134 58.9739 49.1134C46.9529 49.1134 37.1616 39.3214 37.1616 27.2995C37.1616 15.2775 46.9529 5.48549 58.9739 5.48549ZM42.8167 65.2719C27.3219 65.2719 13.976 55.9323 8.07862 42.5854C8.91879 43.1671 9.80744 43.7003 10.7446 44.1528C13.2166 45.3162 15.8664 45.8656 18.5162 45.8656C24.0581 45.8656 29.5354 43.4095 33.1062 38.9013C33.5263 38.368 33.914 37.8186 34.2695 37.2531C38.228 47.029 47.8093 53.961 58.9901 53.961C64.3543 53.961 69.3307 52.3613 73.5154 49.6305C66.6001 59.0994 55.4193 65.2719 42.8167 65.2719Z" fill="#0D4137"/>
<path d="M23.5088 15.1803C24.3654 15.1803 25.0599 14.4858 25.0599 13.6291C25.0599 12.7724 24.3654 12.0779 23.5088 12.0779C22.6522 12.0779 21.9577 12.7724 21.9577 13.6291C21.9577 14.4858 22.6522 15.1803 23.5088 15.1803Z" stroke="black" stroke-width="0.25" stroke-miterlimit="10"/>
</svg>
