<svg width="40px" height="40px" viewBox="0 0 22 22" fill="none" xmlns="http://www.w3.org/2000/svg">
<g clip-path="url(#clip0)">
<path d="M12.9446 0.805438C14.0185 1.87938 14.0185 3.62058 12.9446 4.69452C11.8706 5.76846 10.1294 5.76846 9.05548 4.69452C7.98155 3.62058 7.98155 1.87938 9.05548 0.805438C10.1294 -0.2685 11.8706 -0.2685 12.9446 0.805438Z" fill="white"/>
<path d="M12.9446 9.05548C14.0185 10.1294 14.0185 11.8706 12.9446 12.9446C11.8706 14.0185 10.1294 14.0185 9.05548 12.9446C7.98155 11.8706 7.98155 10.1294 9.05548 9.05548C10.1294 7.98155 11.8706 7.98155 12.9446 9.05548Z" fill="white"/>
<path d="M12.9446 17.3054C14.0185 18.3794 14.0185 20.1206 12.9446 21.1945C11.8706 22.2685 10.1294 22.2685 9.05548 21.1945C7.98155 20.1206 7.98155 18.3794 9.05548 17.3054C10.1294 16.2315 11.8706 16.2315 12.9446 17.3054Z" fill="white"/>
</g>
<defs>
<clipPath id="clip0">
<rect width="22" height="22" fill="white"/>
</clipPath>
</defs>
</svg>
