<svg width="36" height="36" viewBox="0 0 36 36" fill="none" xmlns="http://www.w3.org/2000/svg">
<g clip-path="url(#clip0)">
<path d="M8.61688 19.5752C7.73333 19.5752 7.01453 20.2939 7.01453 21.1774C7.01453 22.0609 7.73333 22.7796 8.61688 22.7796C9.50036 22.7796 10.2191 22.0609 10.2191 21.1774C10.2191 20.2939 9.50029 19.5752 8.61688 19.5752ZM8.61688 21.723C8.31608 21.723 8.07133 21.4783 8.07133 21.1775C8.07133 20.8768 8.31608 20.6321 8.61688 20.6321C8.91768 20.6321 9.16237 20.8768 9.16237 21.1775C9.16237 21.4783 8.91761 21.723 8.61688 21.723Z" fill="#0D4137"/>
<path d="M23.1133 29.7643C23.0426 29.5464 22.8397 29.3991 22.6109 29.3991H19.4723L18.5024 26.4141C18.4325 26.1989 18.2261 26.049 17.9998 26.049C17.7736 26.049 17.5673 26.1988 17.4973 26.4141L16.5274 29.3991H13.3889C13.16 29.3991 12.9571 29.5464 12.8864 29.7642C12.8156 29.9819 12.8931 30.2204 13.0783 30.3549L15.6174 32.1997L14.6476 35.1847C14.5798 35.3929 14.651 35.6274 14.823 35.7629C15.0067 35.9077 15.2714 35.9129 15.4606 35.7754L17.9998 33.9306L20.5389 35.7754C20.7375 35.9197 21.0166 35.9058 21.2001 35.7431C21.3557 35.6051 21.4162 35.3826 21.3519 35.1848L20.382 32.1998L22.9211 30.355C23.1066 30.2205 23.184 29.9819 23.1133 29.7643ZM19.4505 31.5704C19.2653 31.7049 19.1878 31.9434 19.2586 32.1611L19.8446 33.9646L18.3103 32.85C18.1272 32.7169 17.8723 32.7169 17.6893 32.85L16.1551 33.9646L16.741 32.1611C16.8118 31.9434 16.7343 31.7048 16.5491 31.5704L15.0149 30.4558H16.9113C17.1401 30.4558 17.3431 30.3084 17.4138 30.0907L17.9998 28.2871L18.5858 30.0907C18.6565 30.3084 18.8594 30.4558 19.0883 30.4558H20.9846L19.4505 31.5704Z" fill="#0D4137"/>
<path d="M35.9741 29.7641C35.9033 29.5463 35.7004 29.3989 35.4715 29.3989H32.333L31.3631 26.414C31.2932 26.1987 31.0868 26.0488 30.8606 26.0488C30.6343 26.0488 30.428 26.1987 30.358 26.414L29.3882 29.3989H26.2496C26.0207 29.3989 25.8178 29.5463 25.7471 29.7641C25.6764 29.9818 25.7538 30.2203 25.939 30.3548L28.4782 32.1996L27.5083 35.1846C27.4406 35.3928 27.5117 35.6273 27.6837 35.7628C27.8674 35.9076 28.1321 35.9128 28.3214 35.7753L30.8605 33.9304L33.3996 35.7753C33.5983 35.9196 33.8773 35.9057 34.0609 35.743C34.2165 35.6049 34.2771 35.3825 34.2127 35.1847L33.2428 32.1997L35.782 30.3548C35.9674 30.2203 36.0449 29.9818 35.9741 29.7641ZM32.3113 31.5703C32.1261 31.7048 32.0486 31.9433 32.1193 32.161L32.7052 33.9646L31.1711 32.85C30.9859 32.7154 30.7351 32.7153 30.55 32.85L29.0158 33.9646L29.6018 32.161C29.6725 31.9433 29.595 31.7048 29.4098 31.5703L27.8757 30.4557H29.7721C30.0009 30.4557 30.2039 30.3084 30.2746 30.0906L30.8606 28.2871L31.4466 30.0906C31.5173 30.3084 31.7202 30.4557 31.9491 30.4557H33.8454L32.3113 31.5703Z" fill="#0D4137"/>
<path d="M10.2528 29.7643C10.182 29.5464 9.97907 29.3991 9.7502 29.3991H6.61166L5.64177 26.4141C5.57104 26.1963 5.36812 26.049 5.13925 26.049C4.91038 26.049 4.70746 26.1963 4.63673 26.4141L3.66684 29.3991H0.528298C0.299431 29.3991 0.0965088 29.5464 0.0257744 29.7642C-0.04496 29.9819 0.0325244 30.2204 0.217727 30.3549L2.75685 32.1997L1.78696 35.1847C1.71623 35.4024 1.79371 35.641 1.97891 35.7754C2.16405 35.91 2.41485 35.91 2.60006 35.7754L5.13918 33.9305L7.67831 35.7754C7.87694 35.9197 8.15601 35.9058 8.33952 35.7431C8.49513 35.605 8.55567 35.3826 8.49133 35.1848L7.52144 32.1998L10.0606 30.355C10.246 30.2205 10.3235 29.9819 10.2528 29.7643ZM6.58994 31.5704C6.40474 31.7049 6.32725 31.9434 6.39799 32.1611L6.98397 33.9646L5.44975 32.85C5.26666 32.7169 5.0117 32.7169 4.82861 32.85L3.29453 33.9645L3.88045 32.161C3.95118 31.9433 3.8737 31.7047 3.68849 31.5703L2.15434 30.4557H4.05067C4.27954 30.4557 4.48246 30.3083 4.5532 30.0906L5.13918 28.2871L5.72517 30.0906C5.7959 30.3083 5.99882 30.4557 6.22769 30.4557H8.12402L6.58994 31.5704Z" fill="#0D4137"/>
<path d="M31.7227 13.296C32.2685 12.8568 32.6183 12.1834 32.6183 11.43C32.6183 10.1098 31.5442 9.03569 30.224 9.03569H21.7249C21.9891 8.45969 22.294 7.58226 22.4683 6.36255C22.8732 3.52832 22.2614 2.02392 21.6769 1.26096C21.1822 0.615206 20.5175 0.22469 19.7549 0.131737C19.1114 0.0527061 18.5238 0.563808 18.5067 1.21026C18.4077 2.22656 18.0458 5.01466 17.5275 6.05149C16.1958 8.71478 13.0209 10.3027 12.0404 10.742C11.6972 10.4471 11.2516 10.2683 10.7648 10.2683H6.46908C5.38824 10.2683 4.50891 11.1475 4.50891 12.2284V22.9673C4.50891 24.0483 5.38824 24.9275 6.46908 24.9275H10.7646C11.3429 24.9275 11.8635 24.6756 12.2225 24.2759C12.7801 24.628 13.6801 25.0202 14.923 25.0202H28.7312C30.0515 25.0202 31.1255 23.9461 31.1255 22.6259C31.1255 22.0207 30.8998 21.4672 30.5281 21.0452C31.3232 20.6553 31.8718 19.8374 31.8718 18.8939C31.8718 18.2887 31.6461 17.7352 31.2744 17.3132C32.0695 16.9233 32.6181 16.1054 32.6181 15.1619C32.6183 14.4085 32.2684 13.7352 31.7227 13.296ZM10.7646 23.8707H6.46908C5.97092 23.8707 5.56564 23.4654 5.56564 22.9673V12.2284C5.56564 11.7302 5.97092 11.3249 6.46908 11.3249H10.7646C11.0169 11.3249 11.2451 11.4291 11.4091 11.5965V23.3794C11.4091 23.4426 11.4206 23.5047 11.4422 23.5629C11.2765 23.7511 11.0345 23.8707 10.7646 23.8707ZM28.004 13.8243H30.2242C30.9618 13.8243 31.5618 14.4244 31.5618 15.1619C31.5618 15.8993 30.9617 16.4994 30.2242 16.4994H28.004C27.7122 16.4994 27.4756 16.736 27.4756 17.0278C27.4756 17.3197 27.7122 17.5562 28.004 17.5562H29.4778C30.2154 17.5562 30.8153 18.1563 30.8153 18.8938C30.8153 19.6312 30.2153 20.2313 29.4778 20.2313H27.599C27.3072 20.2313 27.0706 20.4679 27.0706 20.7597C27.0706 21.0516 27.3072 21.2881 27.599 21.2881H28.7314C29.4689 21.2881 30.0689 21.8883 30.0689 22.6258C30.0689 23.3633 29.4689 23.9633 28.7314 23.9633H14.9232C13.8326 23.9633 13.0933 23.598 12.6919 23.3237C12.7133 23.2079 12.725 23.0889 12.725 22.9671V12.2284C12.725 12.0218 12.6927 11.8227 12.6332 11.6357C13.8712 11.0675 17.0408 9.38753 18.4726 6.52406C19.1888 5.09186 19.5458 1.44475 19.5606 1.29021C19.5622 1.27347 19.563 1.25653 19.563 1.23972C19.563 1.22172 19.5699 1.20639 19.5835 1.19444C19.6025 1.17778 19.6208 1.17989 19.6269 1.18066C19.9576 1.22102 20.4362 1.37922 20.8381 1.90361C21.2994 2.50577 21.7752 3.74221 21.4222 6.21314C21.1231 8.30753 20.4137 9.22378 20.4092 9.22947C20.1323 9.56796 20.3817 10.0925 20.8181 10.0925H30.2242C30.9617 10.0925 31.5617 10.6926 31.5617 11.4301C31.5617 12.1677 30.9617 12.7677 30.2242 12.7677H28.004C27.7122 12.7677 27.4756 13.0042 27.4756 13.2961C27.4756 13.5879 27.7122 13.8243 28.004 13.8243Z" fill="#0D4137"/>
</g>
<defs>
<clipPath id="clip0">
<rect width="36" height="36" fill="white"/>
</clipPath>
</defs>
</svg>
