<?xml version="1.0" encoding="UTF-8"?>
<svg width="13px" height="13px" viewBox="0 0 13 13" version="1.1" xmlns="http://www.w3.org/2000/svg" xmlns:xlink="http://www.w3.org/1999/xlink">
    <title>Shape</title>
    <g id="Page-1" stroke="none" stroke-width="1" fill="none" fill-rule="evenodd" fill-opacity="0.75">
        <g id="Artboard" fill="#000000" fill-rule="nonzero">
            <path d="M12.3010449,11.4499626 L9.5415358,8.60138448 C10.2729766,7.66953765 10.669857,6.51881928 10.6683838,5.33419192 C10.6683838,2.38819907 8.28018478,0 5.33419192,0 C2.38819907,0 0,2.38819907 0,5.33419192 C0,8.28018478 2.38819907,10.6683838 5.33419192,10.6683838 C6.51881928,10.669857 7.66953765,10.2729766 8.60138448,9.5415358 L11.3542258,12.3967817 C11.4794237,12.5230104 11.6498484,12.5940123 11.8276354,12.5940123 C12.0054224,12.5940123 12.175847,12.5230104 12.3010449,12.3967817 C12.4272737,12.2715838 12.4982755,12.1011591 12.4982755,11.9233721 C12.4982755,11.7455852 12.4272737,11.5751605 12.3010449,11.4499626 Z M1.33354798,5.33419192 C1.33354798,3.12469728 3.12469728,1.33354798 5.33419192,1.33354798 C7.54368656,1.33354798 9.33483587,3.12469728 9.33483587,5.33419192 C9.33483587,7.54368656 7.54368656,9.33483587 5.33419192,9.33483587 C3.12469728,9.33483587 1.33354798,7.54368656 1.33354798,5.33419192 Z" id="Shape"></path>
        </g>
    </g>
</svg>