<svg width="46" height="46" viewBox="0 0 46 46" fill="none" xmlns="http://www.w3.org/2000/svg">
<path d="M45.2656 16.508C45.2622 16.4952 45.2581 16.4829 45.2539 16.4705C45.2363 16.4142 45.2111 16.3606 45.1789 16.3111L39.0064 7.10561V1.36511C39.0067 1.23538 38.9684 1.10848 38.8966 1.00046C38.8247 0.892437 38.7225 0.808139 38.6027 0.758217C38.483 0.708294 38.3511 0.694987 38.2238 0.719976C38.0965 0.744965 37.9794 0.80713 37.8874 0.898615L36.1392 2.62849L34.4112 0.900865C34.2881 0.777871 34.1212 0.708785 33.9471 0.708785C33.7731 0.708785 33.6062 0.777871 33.4831 0.900865L31.7581 2.62586L30.0331 0.900865C29.9099 0.777871 29.743 0.708785 29.569 0.708785C29.395 0.708785 29.2281 0.777871 29.1049 0.900865L27.3799 2.62586L25.6549 0.900865C25.5319 0.777894 25.365 0.708817 25.1911 0.708817C25.0171 0.708817 24.8503 0.777894 24.7272 0.900865L22.9999 2.62624L21.2749 0.90124C21.1519 0.778269 20.985 0.709192 20.8111 0.709192C20.6371 0.709192 20.4702 0.778269 20.3472 0.90124L18.6222 2.62624L16.8972 0.90124C16.7741 0.778246 16.6072 0.70916 16.4331 0.70916C16.2591 0.70916 16.0922 0.778246 15.9691 0.90124L14.2441 2.62624L12.5191 0.90124C12.3959 0.778246 12.229 0.70916 12.055 0.70916C11.881 0.70916 11.7141 0.778246 11.5909 0.90124L9.86069 2.62849L8.11244 0.898615C8.02039 0.807514 7.90344 0.745687 7.77633 0.720918C7.64921 0.69615 7.5176 0.709547 7.39808 0.759424C7.27856 0.809301 7.17647 0.893426 7.10467 1.00121C7.03286 1.10899 6.99456 1.23561 6.99457 1.36511V7.10561L0.822069 16.3111C0.79214 16.3568 0.767958 16.4061 0.750068 16.4577C0.744818 16.4716 0.741069 16.4851 0.736944 16.499C0.726084 16.5378 0.71868 16.5774 0.714819 16.6175C0.714819 16.6321 0.711068 16.646 0.710693 16.6606V16.6797V44.6349C0.710644 44.7211 0.727585 44.8064 0.760547 44.8861C0.793509 44.9657 0.841846 45.0381 0.902795 45.099C0.963743 45.16 1.03611 45.2083 1.11575 45.2413C1.19539 45.2742 1.28075 45.2912 1.36694 45.2911H44.6348C44.721 45.2912 44.8064 45.2742 44.886 45.2413C44.9657 45.2083 45.038 45.16 45.099 45.099C45.1599 45.0381 45.2083 44.9657 45.2412 44.8861C45.2742 44.8064 45.2911 44.7211 45.2911 44.6349V16.6797C45.2903 16.6216 45.2817 16.5638 45.2656 16.508ZM37.6928 16.025H33.2929L37.6928 9.46249V16.025ZM39.0053 9.46249L43.4048 16.025H39.0053V9.46249ZM9.40169 4.02086C9.525 4.1428 9.69157 4.21097 9.86498 4.21048C10.0384 4.20999 10.2046 4.14087 10.3272 4.01824L12.0522 2.29324L13.7772 4.01824C13.9003 4.14123 14.0672 4.21032 14.2413 4.21032C14.4153 4.21032 14.5822 4.14123 14.7053 4.01824L16.4303 2.29324L18.1553 4.01824C18.2784 4.14123 18.4454 4.21032 18.6194 4.21032C18.7934 4.21032 18.9603 4.14123 19.0834 4.01824L20.8084 2.29324L22.5334 4.01824C22.6565 4.14121 22.8233 4.21029 22.9973 4.21029C23.1713 4.21029 23.3381 4.14121 23.4612 4.01824L25.1862 2.29324L26.9112 4.01824C27.0343 4.14123 27.2012 4.21032 27.3753 4.21032C27.5493 4.21032 27.7162 4.14123 27.8393 4.01824L29.5643 2.29324L31.2893 4.01824C31.4124 4.14123 31.5793 4.21032 31.7534 4.21032C31.9274 4.21032 32.0943 4.14123 32.2174 4.01824L33.9424 2.29324L35.6674 4.01824C35.7902 4.14069 35.9563 4.20968 36.1297 4.21017C36.303 4.21066 36.4695 4.14262 36.5929 4.02086L37.6876 2.93749V6.64999H8.30707V2.93749L9.40169 4.02086ZM7.99994 7.96249H37.1179L31.7131 16.025H2.59507L7.99994 7.96249ZM2.02132 17.3375H31.4067V43.9801H2.02132V17.3375ZM32.7192 17.3375H37.6928V43.9801H32.7192V17.3375ZM39.0053 43.9801V17.3375H43.9786V43.9801H39.0053Z" fill="#0D4137"/>
<path d="M13.3535 40.2092H5.80322C5.62917 40.2092 5.46225 40.2783 5.33918 40.4014C5.21611 40.5245 5.14697 40.6914 5.14697 40.8654C5.14697 41.0395 5.21611 41.2064 5.33918 41.3295C5.46225 41.4525 5.62917 41.5217 5.80322 41.5217H13.3535C13.5275 41.5217 13.6944 41.4525 13.8175 41.3295C13.9406 41.2064 14.0097 41.0395 14.0097 40.8654C14.0097 40.6914 13.9406 40.5245 13.8175 40.4014C13.6944 40.2783 13.5275 40.2092 13.3535 40.2092Z" fill="#0D4137"/>
<path d="M17.7335 40.2092H16.1233C15.9492 40.2092 15.7823 40.2783 15.6593 40.4014C15.5362 40.5245 15.467 40.6914 15.467 40.8654C15.467 41.0395 15.5362 41.2064 15.6593 41.3295C15.7823 41.4525 15.9492 41.5217 16.1233 41.5217H17.7335C17.9076 41.5217 18.0745 41.4525 18.1976 41.3295C18.3207 41.2064 18.3898 41.0395 18.3898 40.8654C18.3898 40.6914 18.3207 40.5245 18.1976 40.4014C18.0745 40.2783 17.9076 40.2092 17.7335 40.2092Z" fill="#0D4137"/>
<path d="M21.9054 25.4869H11.5228C10.1515 25.4869 8.83636 26.0317 7.8667 27.0013C6.89704 27.971 6.35229 29.2861 6.35229 30.6574C6.35229 32.0287 6.89704 33.3439 7.8667 34.3135C8.83636 35.2832 10.1515 35.8279 11.5228 35.8279H21.9054C23.2767 35.8279 24.5919 35.2832 25.5615 34.3135C26.5312 33.3439 27.0759 32.0287 27.0759 30.6574C27.0759 29.2861 26.5312 27.971 25.5615 27.0013C24.5919 26.0317 23.2767 25.4869 21.9054 25.4869ZM21.9054 34.5154H11.5228C10.4996 34.5154 9.51829 34.109 8.79478 33.3855C8.07126 32.6619 7.6648 31.6806 7.6648 30.6574C7.6648 29.6342 8.07126 28.6529 8.79478 27.9294C9.51829 27.2059 10.4996 26.7994 11.5228 26.7994H21.9054C22.9286 26.7994 23.9099 27.2059 24.6334 27.9294C25.357 28.6529 25.7634 29.6342 25.7634 30.6574C25.7634 31.6806 25.357 32.6619 24.6334 33.3855C23.9099 34.109 22.9286 34.5154 21.9054 34.5154Z" fill="#0D4137"/>
</svg>
