<svg width="36" height="36" viewBox="0 0 36 36" fill="none" xmlns="http://www.w3.org/2000/svg">
<path d="M3.3048 7.4544C3.606 7.317 3.7386 6.9612 3.6006 6.6594C3.4626 6.3582 3.1074 6.2244 2.8056 6.3636C2.3898 6.5532 2.0028 6.8022 1.6566 7.1022C1.4064 7.3194 1.3794 7.6986 1.596 7.9488C1.7148 8.0856 1.8822 8.1558 2.0496 8.1558C2.1888 8.1558 2.3292 8.1078 2.4426 8.0094C2.7024 7.7838 2.9922 7.5972 3.3048 7.4544Z" fill="#0D4137"/>
<path d="M5.39993 7.13042H6.59993C6.93173 7.13042 7.19993 6.86222 7.19993 6.53042C7.19993 6.19862 6.93173 5.93042 6.59993 5.93042H5.39993C5.06813 5.93042 4.79993 6.19862 4.79993 6.53042C4.79993 6.86222 5.06813 7.13042 5.39993 7.13042Z" fill="#0D4137"/>
<path d="M9.00002 7.13042H10.2C10.5318 7.13042 10.8 6.86222 10.8 6.53042C10.8 6.19862 10.5318 5.93042 10.2 5.93042H9.00002C8.66822 5.93042 8.40002 6.19862 8.40002 6.53042C8.40002 6.86222 8.66822 7.13042 9.00002 7.13042Z" fill="#0D4137"/>
<path d="M6.59993 14.3304H5.39993C5.06813 14.3304 4.79993 14.5986 4.79993 14.9304C4.79993 15.2622 5.06813 15.5304 5.39993 15.5304H6.59993C6.93173 15.5304 7.19993 15.2622 7.19993 14.9304C7.19993 14.5986 6.93173 14.3304 6.59993 14.3304Z" fill="#0D4137"/>
<path d="M13.8 14.3304H12.6C12.2682 14.3304 12 14.5986 12 14.9304C12 15.2622 12.2682 15.5304 12.6 15.5304H13.8C14.1318 15.5304 14.4 15.2622 14.4 14.9304C14.4 14.5986 14.1318 14.3304 13.8 14.3304Z" fill="#0D4137"/>
<path d="M10.2 14.3304H9.00002C8.66822 14.3304 8.40002 14.5986 8.40002 14.9304C8.40002 15.2622 8.66822 15.5304 9.00002 15.5304H10.2C10.5318 15.5304 10.8 15.2622 10.8 14.9304C10.8 14.5986 10.5318 14.3304 10.2 14.3304Z" fill="#0D4137"/>
<path d="M3.30481 14.0063C2.99281 13.8635 2.70301 13.6769 2.44321 13.4513C2.19301 13.2347 1.81441 13.2617 1.59661 13.5119C1.38001 13.7621 1.40701 14.1413 1.65721 14.3585C2.00341 14.6585 2.38981 14.9069 2.80561 15.0971C2.88661 15.1343 2.97121 15.1517 3.05461 15.1517C3.28261 15.1517 3.49981 15.0215 3.60061 14.8013C3.73801 14.5001 3.60601 14.1437 3.30481 14.0063Z" fill="#0D4137"/>
<path d="M17.4 14.3304H16.2C15.8682 14.3304 15.6 14.5986 15.6 14.9304C15.6 15.2622 15.8682 15.5304 16.2 15.5304H17.4C17.7318 15.5304 18 15.2622 18 14.9304C18 14.5986 17.7318 14.3304 17.4 14.3304Z" fill="#0D4137"/>
<path d="M28.2 14.3304H27C26.6682 14.3304 26.4 14.5986 26.4 14.9304C26.4 15.2622 26.6682 15.5304 27 15.5304H28.2C28.5318 15.5304 28.8 15.2622 28.8 14.9304C28.8 14.5986 28.5318 14.3304 28.2 14.3304Z" fill="#0D4137"/>
<path d="M31.8 14.3304H30.6C30.2682 14.3304 30 14.5986 30 14.9304C30 15.2622 30.2682 15.5304 30.6 15.5304H31.8C32.1318 15.5304 32.4 15.2622 32.4 14.9304C32.4 14.5986 32.1318 14.3304 31.8 14.3304Z" fill="#0D4137"/>
<path d="M21.0001 14.3304H19.8001C19.4683 14.3304 19.2001 14.5986 19.2001 14.9304C19.2001 15.2622 19.4683 15.5304 19.8001 15.5304H21.0001C21.3319 15.5304 21.6001 15.2622 21.6001 14.9304C21.6001 14.5986 21.3319 14.3304 21.0001 14.3304Z" fill="#0D4137"/>
<path d="M24.5999 14.3304H23.3999C23.0681 14.3304 22.7999 14.5986 22.7999 14.9304C22.7999 15.2622 23.0681 15.5304 23.3999 15.5304H24.5999C24.9317 15.5304 25.1999 15.2622 25.1999 14.9304C25.1999 14.5986 24.9317 14.3304 24.5999 14.3304Z" fill="#0D4137"/>
<path d="M3.30481 32.0063C2.99281 31.8635 2.70301 31.6769 2.44321 31.4513C2.19301 31.2347 1.81441 31.2617 1.59661 31.5119C1.38001 31.7621 1.40701 32.1413 1.65721 32.3585C2.00341 32.6585 2.38981 32.9069 2.80561 33.0971C2.88661 33.1343 2.97121 33.1517 3.05461 33.1517C3.28261 33.1517 3.49981 33.0215 3.60061 32.8013C3.73801 32.5001 3.60601 32.1437 3.30481 32.0063Z" fill="#0D4137"/>
<path d="M10.2 32.3304H9.00002C8.66822 32.3304 8.40002 32.5986 8.40002 32.9304C8.40002 33.2622 8.66822 33.5304 9.00002 33.5304H10.2C10.5318 33.5304 10.8 33.2622 10.8 32.9304C10.8 32.5986 10.5318 32.3304 10.2 32.3304Z" fill="#0D4137"/>
<path d="M6.59993 32.3304H5.39993C5.06813 32.3304 4.79993 32.5986 4.79993 32.9304C4.79993 33.2622 5.06813 33.5304 5.39993 33.5304H6.59993C6.93173 33.5304 7.19993 33.2622 7.19993 32.9304C7.19993 32.5986 6.93173 32.3304 6.59993 32.3304Z" fill="#0D4137"/>
<path d="M21.0001 32.3304H19.8001C19.4683 32.3304 19.2001 32.5986 19.2001 32.9304C19.2001 33.2622 19.4683 33.5304 19.8001 33.5304H21.0001C21.3319 33.5304 21.6001 33.2622 21.6001 32.9304C21.6001 32.5986 21.3319 32.3304 21.0001 32.3304Z" fill="#0D4137"/>
<path d="M22.7999 32.9304C22.7999 33.2622 23.0681 33.5304 23.3999 33.5304H24.5999C24.9317 33.5304 25.1999 33.2622 25.1999 32.9304C25.1999 32.5986 24.9317 32.3304 24.5999 32.3304H23.3999C23.0681 32.3304 22.7999 32.5986 22.7999 32.9304Z" fill="#0D4137"/>
<path d="M27 33.5304H28.2C28.5318 33.5304 28.8 33.2622 28.8 32.9304C28.8 32.5986 28.5318 32.3304 28.2 32.3304H27C26.6682 32.3304 26.4 32.5986 26.4 32.9304C26.4 33.2622 26.6682 33.5304 27 33.5304Z" fill="#0D4137"/>
<path d="M17.4 32.3304H16.2C15.8682 32.3304 15.6 32.5986 15.6 32.9304C15.6 33.2622 15.8682 33.5304 16.2 33.5304H17.4C17.7318 33.5304 18 33.2622 18 32.9304C18 32.5986 17.7318 32.3304 17.4 32.3304Z" fill="#0D4137"/>
<path d="M30.6 33.5304H31.8C32.1318 33.5304 32.4 33.2622 32.4 32.9304C32.4 32.5986 32.1318 32.3304 31.8 32.3304H30.6C30.2682 32.3304 30 32.5986 30 32.9304C30 33.2622 30.2682 33.5304 30.6 33.5304Z" fill="#0D4137"/>
<path d="M13.8 32.3304H12.6C12.2682 32.3304 12 32.5986 12 32.9304C12 33.2622 12.2682 33.5304 12.6 33.5304H13.8C14.1318 33.5304 14.4 33.2622 14.4 32.9304C14.4 32.5986 14.1318 32.3304 13.8 32.3304Z" fill="#0D4137"/>
<path d="M26.4 23.3304C26.4 24.654 27.4764 25.7304 28.8 25.7304C30.1236 25.7304 31.2 24.654 31.2 23.3304C31.2 22.0068 30.1236 20.9304 28.8 20.9304C27.4764 20.9304 26.4 22.0068 26.4 23.3304ZM28.8 22.1304C29.4618 22.1304 30 22.6686 30 23.3304C30 23.9922 29.4618 24.5304 28.8 24.5304C28.1382 24.5304 27.6 23.9922 27.6 23.3304C27.6 22.6686 28.1382 22.1304 28.8 22.1304Z" fill="#0D4137"/>
<path d="M25.7652 3.53041L22.5036 0.268808C22.2378 0.00300802 21.804 0.00300802 21.5382 0.268808L20.3106 1.49641L19.083 0.268808C18.8172 0.00300802 18.3834 0.00300802 18.1176 0.268808L14.856 3.53041H4.8C2.1534 3.53041 0 5.68381 0 8.33041V31.6392C0 34.005 1.9254 35.9304 4.2912 35.9304H36V27.5304V19.1304V13.1304V11.9304V3.53041H25.7652ZM22.0212 1.48321L24.0684 3.53041L32.4684 11.9304H29.2338L22.4736 5.16961C22.2198 4.92301 21.822 4.92361 21.5622 5.17621L14.8086 11.9304H11.574L21.1596 2.34541L22.0212 1.48321ZM27.5376 11.9304H16.5054L22.0212 6.41461L27.5376 11.9304ZM18.6 1.48321L19.4622 2.34541L9.8772 11.9304H8.1528L16.5528 3.53041L18.6 1.48321ZM4.8 4.73041H13.656L12.4194 5.96701C12.2376 6.02581 12.0984 6.16441 12.0396 6.34681L6.456 11.9304H4.8C2.8146 11.9304 1.2 10.3158 1.2 8.33041C1.2 6.34501 2.8146 4.73041 4.8 4.73041ZM34.8 26.3304H28.2C26.5458 26.3304 25.2 24.9846 25.2 23.3304C25.2 21.6762 26.5458 20.3304 28.2 20.3304H34.8V26.3304ZM34.8 14.3304H34.2C33.8682 14.3304 33.6 14.5986 33.6 14.9304C33.6 15.2622 33.8682 15.5304 34.2 15.5304H34.8V19.1304H28.2C25.8846 19.1304 24 21.015 24 23.3304C24 25.6458 25.8846 27.5304 28.2 27.5304H34.8V32.3304H34.2C33.8682 32.3304 33.6 32.5986 33.6 32.9304C33.6 33.2622 33.8682 33.5304 34.2 33.5304H34.8V34.7304H4.2912C2.5872 34.7304 1.2 33.3438 1.2 31.6392V30.3168C1.3398 30.1668 1.407 29.955 1.3446 29.7444C1.2486 29.4168 1.2 29.0754 1.2 28.7304V12.3168C1.3398 12.1668 1.407 11.955 1.3446 11.7444C1.3332 11.7054 1.329 11.6652 1.3188 11.6262C1.3728 11.6832 1.4274 11.739 1.4838 11.793C1.5354 11.8428 1.5888 11.8902 1.6428 11.9376C1.71 11.9964 1.7784 12.0534 1.8486 12.1086C1.905 12.153 1.9626 12.1956 2.0208 12.2376C2.0934 12.2898 2.1684 12.339 2.244 12.387C2.3046 12.4254 2.3652 12.4626 2.4276 12.4986C2.5068 12.5436 2.5878 12.5856 2.6694 12.6264C2.7324 12.6582 2.7954 12.69 2.8602 12.7188C2.946 12.7566 3.0336 12.7902 3.1212 12.8232C3.186 12.8478 3.2502 12.873 3.3162 12.8946C3.4104 12.9252 3.5064 12.9498 3.6024 12.975C3.666 12.9912 3.7284 13.0104 3.7932 13.0242C3.9018 13.0476 4.0122 13.0632 4.1232 13.0788C4.1784 13.0866 4.2324 13.098 4.2882 13.104C4.4562 13.122 4.6266 13.1322 4.7988 13.1322H7.0884H8.7852H10.5096H12.2064H15.18H28.863H31.8348H33.5316H34.8V14.3304ZM34.1652 11.9304L29.3652 7.13041H29.4C29.7318 7.13041 30 6.86221 30 6.53041C30 6.19861 29.7318 5.93041 29.4 5.93041H28.2C28.1898 5.93041 28.1814 5.93581 28.1712 5.93641L26.9652 4.73041H34.8V11.9304H34.1652Z" fill="#0D4137"/>
<path d="M33 5.93042H31.8C31.4682 5.93042 31.2 6.19862 31.2 6.53042C31.2 6.86222 31.4682 7.13042 31.8 7.13042H33C33.3318 7.13042 33.6 6.86222 33.6 6.53042C33.6 6.19862 33.3318 5.93042 33 5.93042Z" fill="#0D4137"/>
</svg>
