<svg xmlns="http://www.w3.org/2000/svg" width="22.781" height="22.781"><path fill="currentColor" d="M11.391 22.783a10.933 10.933 0 004.406-.9 11.672 11.672 0 006.094-6.094 11.316 11.316 0 000-8.8 11.677 11.677 0 00-6.105-6.1 11.287 11.287 0 00-8.789 0 11.677 11.677 0 00-6.105 6.1 11.282 11.282 0 00.006 8.8 11.71 11.71 0 006.1 6.094 10.9 10.9 0 004.393.9zm-5.144-5.6a.667.667 0 01-.551-.217.837.837 0 01-.176-.545 3.055 3.055 0 01.352-1.207 5.6 5.6 0 011.072-1.494 6 6 0 011.828-1.254 6.186 6.186 0 012.607-.51 6.176 6.176 0 012.613.51 6.023 6.023 0 011.822 1.254 5.715 5.715 0 011.078 1.494 3.017 3.017 0 01.357 1.207.82.82 0 01-.182.545.656.656 0 01-.533.217zm5.133-6.152a2.68 2.68 0 01-1.471-.422 3.066 3.066 0 01-1.055-1.143 3.361 3.361 0 01-.393-1.635 3.175 3.175 0 01.393-1.564 3.092 3.092 0 011.055-1.134 2.795 2.795 0 012.953 0 3.092 3.092 0 011.058 1.131 3.175 3.175 0 01.393 1.564 3.4 3.4 0 01-.393 1.641 3.055 3.055 0 01-1.055 1.148 2.628 2.628 0 01-1.486.411z"/></svg>