<svg xmlns="http://www.w3.org/2000/svg" width="32.488" height="25.94" viewBox="0 0 32.488 25.94">
  <path d="M11.734,27.016a1.939,1.939,0,0,0,.59,1.434,2.069,2.069,0,0,0,2.881,0,2.03,2.03,0,0,0,0-2.862,1.96,1.96,0,0,0-1.44-.59,2.025,2.025,0,0,0-1.758.99A1.966,1.966,0,0,0,11.734,27.016Zm11.155,0a1.928,1.928,0,0,0,.6,1.434,1.992,1.992,0,0,0,1.447.584,2.018,2.018,0,1,0,0-4.036,1.981,1.981,0,0,0-1.447.59A1.934,1.934,0,0,0,22.889,27.016ZM12.8,23.107H26.785a.974.974,0,0,0,.7-.279.956.956,0,0,0,.292-.723.941.941,0,0,0-.292-.711.974.974,0,0,0-.7-.279H13.041a.966.966,0,0,1-.749-.3,1.561,1.561,0,0,1-.368-.8l-.19-1.244H26.849a2.943,2.943,0,0,0,1.561-.381,2.389,2.389,0,0,0,.939-1.079l.1-.228a8.339,8.339,0,0,1-3.109-.628,7.723,7.723,0,0,1-2.519-1.675,7.882,7.882,0,0,1-1.682-2.494,7.618,7.618,0,0,1-.609-3.033,10.135,10.135,0,0,1,.063-1.091H10.211L10,6.749a1.946,1.946,0,0,0-.47-1.117,1.83,1.83,0,0,0-1.333-.381H4.031a.965.965,0,0,0-.711.311,1.024,1.024,0,0,0-.3.742.988.988,0,0,0,.3.723.974.974,0,0,0,.711.3h3.9L9.818,20.252a3.733,3.733,0,0,0,.914,2.088A2.705,2.705,0,0,0,12.8,23.107Zm16.574-7.7a5.781,5.781,0,0,0,2.354-.489,6.384,6.384,0,0,0,1.961-1.339,6.292,6.292,0,0,0,1.333-1.961A5.877,5.877,0,0,0,35.5,9.249a5.976,5.976,0,0,0-.476-2.38,6.244,6.244,0,0,0-3.281-3.293,5.922,5.922,0,0,0-2.373-.482,5.842,5.842,0,0,0-2.38.489,6.44,6.44,0,0,0-1.961,1.333A6.216,6.216,0,0,0,23.7,6.869a6.112,6.112,0,0,0,0,4.759,6.326,6.326,0,0,0,3.293,3.293A5.908,5.908,0,0,0,29.374,15.4ZM25.491,9.249a.767.767,0,0,1,.216-.577.785.785,0,0,1,.571-.209h2.31v-2.3a.772.772,0,0,1,.216-.571.756.756,0,0,1,.558-.216.742.742,0,0,1,.787.787v2.3h2.31a.785.785,0,0,1,.571.209.79.79,0,0,1-.571,1.364h-2.31v2.31a.756.756,0,0,1-.216.558.772.772,0,0,1-.571.216.74.74,0,0,1-.774-.774v-2.31h-2.31a.742.742,0,0,1-.787-.787Z" transform="translate(-3.016 -3.094)" fill="#fff"/>
</svg>
