<svg xmlns="http://www.w3.org/2000/svg" width="18.445" height="18.445" viewBox="0 0 18.445 18.445">
  <path d="M3.961,16.145H20.145a1.072,1.072,0,0,0,.791-.34A1.114,1.114,0,0,0,21.27,15a1.1,1.1,0,0,0-.334-.8,1.081,1.081,0,0,0-.791-.334H3.961a1.1,1.1,0,0,0-.8.334,1.085,1.085,0,0,0-.34.8,1.1,1.1,0,0,0,.34.809A1.091,1.091,0,0,0,3.961,16.145Zm8.1,8.074a1.075,1.075,0,0,0,.8-.334,1.1,1.1,0,0,0,.328-.8V6.91a1.11,1.11,0,0,0-.328-.8,1.066,1.066,0,0,0-.8-.34A1.15,1.15,0,0,0,10.91,6.91V23.082a1.1,1.1,0,0,0,.334.8A1.108,1.108,0,0,0,12.059,24.219Z" transform="translate(-2.824 -5.773)" fill="#0d4137"/>
</svg>
