<svg xmlns="http://www.w3.org/2000/svg" width="11.098" height="19.453" viewBox="0 0 11.098 19.453">
  <path d="M1.395,15a1.252,1.252,0,0,0,.088.475,1.1,1.1,0,0,0,.3.4l8.7,8.52a1.153,1.153,0,0,0,.832.328,1.231,1.231,0,0,0,.6-.146,1.083,1.083,0,0,0,.428-.422,1.171,1.171,0,0,0-.205-1.436L4.219,15l7.91-7.723a1.179,1.179,0,0,0,.205-1.441,1.094,1.094,0,0,0-.428-.416,1.231,1.231,0,0,0-.6-.146,1.153,1.153,0,0,0-.832.328l-8.7,8.52a1.1,1.1,0,0,0-.3.4A1.252,1.252,0,0,0,1.395,15Z" transform="translate(-1.395 -5.27)" fill="#fff"/>
</svg>
