<svg xmlns="http://www.w3.org/2000/svg" width="21.797" height="15.889" viewBox="0 0 21.797 15.889">
  <path d="M6.172,17.379a.9.9,0,0,1-.654-.249.845.845,0,0,1-.254-.63V14.781a.841.841,0,0,1,.254-.635.9.9,0,0,1,.654-.244H8.438a.9.9,0,0,1,.659.244.85.85,0,0,1,.249.635V16.5a.854.854,0,0,1-.249.63.891.891,0,0,1-.659.249Zm-3.818-7.07V8.18h21.8v2.129Zm2.979,9.98h15.84a3.042,3.042,0,0,0,2.231-.742,2.969,2.969,0,0,0,.747-2.2V7.34a2.969,2.969,0,0,0-.747-2.2A3.042,3.042,0,0,0,21.172,4.4H5.332a3.057,3.057,0,0,0-2.227.737,2.954,2.954,0,0,0-.752,2.2V17.35a2.954,2.954,0,0,0,.752,2.2A3.057,3.057,0,0,0,5.332,20.289Z" transform="translate(-2.354 -4.4)" fill="#fff"/>
</svg>
