<svg xmlns="http://www.w3.org/2000/svg" width="25.676" height="21.961" aria-hidden="true"><title>Carrinho</title><path fill="currentColor" d="M0 .972a.913.913 0 00.281.668.9.9 0 00.656.281h3.601l1.746 11.93a3.447 3.447 0 00.844 1.928 2.5 2.5 0 001.91.709h12.911a.9.9 0 00.645-.258.883.883 0 00.27-.668.869.869 0 00-.27-.656.9.9 0 00-.645-.258H9.258a.892.892 0 01-.691-.281 1.442 1.442 0 01-.34-.738l-.176-1.148h13.957a2.5 2.5 0 001.922-.715 3.555 3.555 0 00.855-1.945l.844-5.7a1.862 1.862 0 00.035-.234q.012-.129.012-.211a.939.939 0 00-.3-.715 1.158 1.158 0 00-.826-.281H6.644l-.2-1.3A1.8 1.8 0 006.01.349a1.69 1.69 0 00-1.23-.352H.938a.891.891 0 00-.656.287A.945.945 0 000 .972zm8.051 19.125a1.79 1.79 0 00.545 1.324 1.91 1.91 0 002.66 0 1.874 1.874 0 000-2.643 1.81 1.81 0 00-1.33-.545 1.869 1.869 0 00-1.623.914 1.815 1.815 0 00-.252.95zm10.3 0a1.781 1.781 0 00.551 1.324 1.839 1.839 0 001.336.539 1.863 1.863 0 100-3.727 1.829 1.829 0 00-1.336.545 1.786 1.786 0 00-.551 1.319z"/></svg>