<svg xmlns="http://www.w3.org/2000/svg" width="16.162" height="15.928" viewBox="0 0 16.162 15.928">
  <path d="M8.506,20.533a1.2,1.2,0,0,0,1.045-.557l8.7-13.633a1.91,1.91,0,0,0,.2-.4,1.087,1.087,0,0,0,.063-.352.938.938,0,0,0-.986-.986,1,1,0,0,0-.518.122,1.389,1.389,0,0,0-.41.425L8.477,18.092,4.268,12.652a1.074,1.074,0,0,0-.889-.488,1.008,1.008,0,0,0-.737.283.97.97,0,0,0-.288.723,1.081,1.081,0,0,0,.073.381,1.332,1.332,0,0,0,.239.391l4.775,6.035A1.353,1.353,0,0,0,8.506,20.533Z" transform="translate(-2.354 -4.605)" fill="#0d4137"/>
</svg>
