<svg xmlns="http://www.w3.org/2000/svg" xmlns:xlink="http://www.w3.org/1999/xlink" width="27" height="27" viewBox="0 0 27 27">
  <defs>
    <filter id="Path_18" x="0" y="0" width="27" height="27" filterUnits="userSpaceOnUse">
      <feOffset dy="1" input="SourceAlpha"/>
      <feGaussianBlur stdDeviation="0.5" result="blur"/>
      <feFlood flood-opacity="0.161"/>
      <feComposite operator="in" in2="blur"/>
      <feComposite in="SourceGraphic"/>
    </filter>
  </defs>
  <g transform="matrix(1, 0, 0, 1, 0, 0)" filter="url(#Path_18)">
    <path id="Path_18-2" data-name="Path 18" d="M15.3,29.676a11.518,11.518,0,0,0,4.642-.944,12.3,12.3,0,0,0,6.42-6.42,11.921,11.921,0,0,0,0-9.272A12.3,12.3,0,0,0,19.93,6.614a11.891,11.891,0,0,0-9.259,0A12.3,12.3,0,0,0,4.239,13.04a11.885,11.885,0,0,0,.006,9.272,12.336,12.336,0,0,0,6.426,6.42A11.487,11.487,0,0,0,15.3,29.676Zm-4.037-6.914a1.043,1.043,0,0,1-1.037-1.049,1,1,0,0,1,.309-.728l3.3-3.3-3.3-3.284a1.01,1.01,0,0,1-.309-.741.965.965,0,0,1,.309-.735,1.028,1.028,0,0,1,.728-.29.98.98,0,0,1,.741.3l3.309,3.3,3.309-3.309a1.01,1.01,0,0,1,.741-.309A1.033,1.033,0,0,1,20.4,13.651a1.037,1.037,0,0,1-.309.741l-3.3,3.3,3.284,3.284a1.037,1.037,0,0,1,.309.741,1.026,1.026,0,0,1-.3.747,1.009,1.009,0,0,1-.753.3,1.08,1.08,0,0,1-.753-.309L15.313,19.17l-3.284,3.284A1.039,1.039,0,0,1,11.264,22.762Z" transform="translate(-1.8 -5.18)" fill="#fff"/>
  </g>
</svg>
