<svg xmlns="http://www.w3.org/2000/svg" width="30.375" height="30.375" viewBox="0 0 30.375 30.375">
  <path d="M17.828,34.516a14.577,14.577,0,0,0,5.875-1.2A15.562,15.562,0,0,0,31.828,25.2a14.6,14.6,0,0,0,1.188-5.867,14.6,14.6,0,0,0-1.187-5.867,15.569,15.569,0,0,0-8.141-8.133,15.049,15.049,0,0,0-11.719,0,15.569,15.569,0,0,0-8.141,8.133,14.6,14.6,0,0,0-1.187,5.867,14.522,14.522,0,0,0,1.2,5.867,15.613,15.613,0,0,0,8.133,8.125A14.539,14.539,0,0,0,17.828,34.516Zm-3.484-7.609A1.243,1.243,0,0,1,13.953,26a1.117,1.117,0,0,1,.375-.859l6.156-5.8-6.156-5.781a1.1,1.1,0,0,1-.367-.867,1.229,1.229,0,0,1,.4-.9,1.082,1.082,0,0,1,.836-.312,1.3,1.3,0,0,1,.883.375l6.3,5.906a2.036,2.036,0,0,1,.6,1,2.289,2.289,0,0,1,0,1.156,2.128,2.128,0,0,1-.6,1.016l-6.3,5.906a1.235,1.235,0,0,1-.875.344A1.147,1.147,0,0,1,14.344,26.906Z" transform="translate(-2.641 -4.141)" fill="currentColor"/>
</svg>
