<svg xmlns="http://www.w3.org/2000/svg" width="36" height="36" fill="none"><g><path fill="#0D4137" d="M1.91 11.107h6.105c1.054 0 1.911.858 1.911 1.912v7.027h2.284c-.127-.462-.174-1.006-.144-1.639.05-2.676.536-4.931 1.444-6.703.705-1.376 1.528-2.201 2.234-2.694-.829-.852-1.308-2.065-1.308-3.463 0-2.516 2.007-4.563 4.474-4.563s4.474 2.047 4.474 4.563a.527.527 0 01-.528.527h-.358a3.661 3.661 0 01-2.891 4.195c.175.652.262 1.42.262 2.294l1.315 1.131 3.2.259 3.692-1.22c.338-.113.722-.24 1.055 0 .328.236.328.65.328.787v2.744a.527.527 0 01-.528.528h-.628l.963 3.327a.527.527 0 01-1.013.293l-1.048-3.62h-1.499c1.865 5.686.8 9.482-.834 13.323h.948l3.948-4.415-.835-2.884a.527.527 0 111.013-.293l.798 2.759a5.304 5.304 0 015.242 4.111.527.527 0 01-.395.632l-.749.173a4.043 4.043 0 01-4.024 4.424c-.748 0-1.483-.21-2.134-.618a4.008 4.008 0 01-1.64-2.012l-.59.136c-.176.04-.343.061-.51-.029a.606.606 0 01-.297-.404 5.25 5.25 0 01-.085-.525H14.533c-.353 2.192-2.218 3.845-4.447 3.845-2.228 0-4.094-1.653-4.446-3.845h-.403-.098c-.15 0-.369-.016-.547-.198a.676.676 0 01-.187-.513c.015-.495.09-.974.216-1.428-.42-2.55-.016-4.104.583-5.32a1.388 1.388 0 01-.63-1.161V21.1H1.911A1.913 1.913 0 010 19.19v-6.17C0 11.965.856 11.107 1.91 11.107zm27.334 22.004a2.958 2.958 0 002.25.379 2.988 2.988 0 002.31-3.053l-5.72 1.317a2.964 2.964 0 001.16 1.357zm-2.638-2.1l8.203-1.888a4.247 4.247 0 00-4.199-2.782l-4.018 4.493c.003.06.008.118.014.177zm-7.966-9.19c.153.404.153.902.153 1.59v1.99h1.931v-2.73c0-3.086-1.684-3.636-2.44-3.727h-5.17c.02.7.179 1.199.479 1.515.35.368.948.547 1.83.548l1.892.002c.675 0 1.121.273 1.325.812zm.153 4.635v1.26h3.761c-.042-.391-.164-.693-.364-.902-.297-.311-.715-.358-.938-.358h-2.459zm-5.656-8.566h4.796c.192-.607.364-1.27.505-1.952l-1.458-.947c-.796-.516-1.21-1.247-1.136-2.003.066-.671.522-1.27 1.162-1.527.584-.234 1.214-.16 1.77.195a6.228 6.228 0 00-.255-1.337 3.716 3.716 0 01-.667-.131 4.37 4.37 0 01-1.231-.488c-1.016.607-3.25 2.575-3.486 8.19zM22.29 5.02c-.248-1.685-1.67-2.98-3.38-2.98-1.885 0-3.42 1.573-3.42 3.507 0 1.573.755 2.841 1.972 3.4V6.17c0-.48.183-1.07 1.06-1.15a.513.513 0 01.047-.001h3.721zm-.796 1.662c0-.208-.024-.411-.07-.608h-2.83a.82.82 0 00-.073.011.635.635 0 00-.005.086v3.085c.126.019.252.028.379.028h.003a2.603 2.603 0 002.596-2.602zm.683 8.15l-1.249-.1a.529.529 0 01-.301-.126l-2.255-1.939c-.218-.188-.45-.284-.677-.284-.1 0-.2.019-.297.057a.8.8 0 00-.504.65c-.035.356.2.717.66 1.017l2.512 1.63h2.111v-.904zm2.229.181l-1.174-.095v.82h1.364c.177 0 .22-.148.225-.27.003-.07-.004-.421-.415-.455zm1.248-.364a1.543 1.543 0 01.194 1.084v.004h2.556v-2.002l-2.752.91.002.004zm-1.06 2.143H19.91a.527.527 0 01-.287-.085l-.239-.155a20.68 20.68 0 01-.387 1.468c1.075.317 2.782 1.343 2.782 4.652v2.782a2.2 2.2 0 011.174.63c.386.405.606.952.66 1.631h1.063c1.072-3.089 1.48-6.377-.083-10.923zm-.87 13.321c.195-.448.383-.895.56-1.343h-5.476c-.71 0-1.07-.323-1.07-.96v-3.871h-4.162a.527.527 0 110-1.055h4.159c-.007-.3-.026-.544-.08-.689-.028-.07-.05-.131-.34-.131l-1.894-.002c-1.185-.001-2.034-.288-2.593-.877-.026-.027-.05-.056-.075-.084H5.629v1.449c0 .181.153.334.334.334h5.25a.527.527 0 110 1.055h-4.94c-.417.774-.792 1.736-.77 3.257a5.703 5.703 0 014.65-2.38c1.538 0 2.983.603 4.067 1.7a5.81 5.81 0 011.657 3.599l7.847-.002zm-13.638 3.848c1.649 0 3.04-1.188 3.376-2.791h-6.75c.335 1.603 1.726 2.79 3.374 2.79zm-3.974-3.846h8.706c-.259-2.384-2.252-4.245-4.666-4.245-2.119 0-3.898 1.397-4.487 3.353l-.006.018c-.084.281-.143.573-.174.874h.627zM1.055 19.19c0 .472.384.857.856.857h6.96v-2.723H1.055v1.866zm0-2.921H8.87v-1.122H1.055v1.122zm0-2.176H8.87v-1.073a.857.857 0 00-.856-.857H1.911a.857.857 0 00-.856.857v1.073z"/></g></svg>