<svg xmlns="http://www.w3.org/2000/svg" width="31.906" height="31.875"><path fill="currentColor" d="M14.468 31.875h2.984a2.375 2.375 0 002.391-1.859l.625-2.687.422-.156 2.328 1.436a2.323 2.323 0 003-.359l2.078-2.062a2.458 2.458 0 00.742-1.461 2.347 2.347 0 00-.367-1.57l-1.453-2.312.156-.406 2.672-.609a2.365 2.365 0 001.352-.852 2.422 2.422 0 00.508-1.539v-2.908a2.447 2.447 0 00-.5-1.539 2.408 2.408 0 00-1.359-.867l-2.641-.641-.172-.422 1.453-2.312a2.318 2.318 0 00.367-1.555 2.482 2.482 0 00-.758-1.461l-2.062-2.062a2.32 2.32 0 00-1.422-.742 2.437 2.437 0 00-1.578.352l-2.328 1.421-.437-.156-.626-2.688a2.458 2.458 0 00-.859-1.35 2.39 2.39 0 00-1.531-.508h-2.985a2.413 2.413 0 00-1.547.508 2.38 2.38 0 00-.844 1.352l-.625 2.688-.453.156-2.327-1.424a2.4 2.4 0 00-1.57-.352 2.325 2.325 0 00-1.43.742L3.593 5.734a2.6 2.6 0 00-.734 1.461 2.283 2.283 0 00.359 1.555l1.453 2.313-.172.422-2.625.641a2.405 2.405 0 00-1.875 2.406v2.906a2.393 2.393 0 001.875 2.391l2.656.609.156.406-1.452 2.312a2.312 2.312 0 00-.359 1.57 2.536 2.536 0 00.734 1.461l2.078 2.063a2.352 2.352 0 001.445.734 2.383 2.383 0 001.571-.375l2.313-1.437.438.156.625 2.688a2.349 2.349 0 00.844 1.359 2.438 2.438 0 001.545.5zm.313-2.516a.383.383 0 01-.422-.344l-.891-3.641a8.916 8.916 0 01-1.336-.437 7 7 0 01-1.133-.594l-3.2 1.984a.415.415 0 01-.562-.078l-1.644-1.656a.364.364 0 01-.047-.516l1.969-3.2a12.142 12.142 0 01-.556-1.135 7.525 7.525 0 01-.43-1.32l-3.67-.86a.379.379 0 01-.328-.422v-2.331a.379.379 0 01.328-.422l3.656-.891a8.251 8.251 0 01.453-1.367q.281-.648.516-1.1L5.531 7.843a.406.406 0 01.047-.562l1.64-1.609a.454.454 0 01.578-.078l3.172 1.953a7.016 7.016 0 011.156-.586 10.1 10.1 0 011.359-.445l.876-3.657a.379.379 0 01.422-.328h2.359a.379.379 0 01.422.328l.875 3.672a9.678 9.678 0 011.344.453 11.96 11.96 0 011.156.563l3.188-1.953a.413.413 0 01.547.078l1.656 1.625a.386.386 0 01.047.547l-1.969 3.188a10.333 10.333 0 01.547 1.1 8.251 8.251 0 01.453 1.367l3.641.891a.383.383 0 01.344.422v2.328a.383.383 0 01-.344.422l-3.656.859a8.551 8.551 0 01-.445 1.32q-.273.633-.539 1.133l1.952 3.188a.377.377 0 01-.062.531l-1.638 1.657a.383.383 0 01-.531.063l-3.2-1.969a7.812 7.812 0 01-1.141.594 8.461 8.461 0 01-1.344.438l-.884 3.639a.383.383 0 01-.422.344zm1.188-7.8a5.383 5.383 0 002.8-.758 5.814 5.814 0 002.039-2.031 5.4 5.4 0 00.766-2.836 5.329 5.329 0 00-.766-2.812 5.835 5.835 0 00-2.039-2.023 5.383 5.383 0 00-2.8-.758 5.452 5.452 0 00-2.828.758 5.814 5.814 0 00-2.047 2.023 5.563 5.563 0 000 5.633 5.879 5.879 0 002.039 2.039 5.4 5.4 0 002.835.768zm0-2.422a3.088 3.088 0 01-1.6-.43 3.218 3.218 0 01-1.156-1.164 3.13 3.13 0 01-.43-1.609 3.059 3.059 0 01.43-1.586 3.237 3.237 0 011.156-1.156 3.088 3.088 0 011.6-.43 2.99 2.99 0 011.563.43 3.257 3.257 0 011.148 1.156 3.17 3.17 0 010 3.188 3.322 3.322 0 01-1.148 1.164 2.95 2.95 0 01-1.564.44z"/></svg>