<svg id="logo_googleg_48dp" xmlns="http://www.w3.org/2000/svg" width="32.14" height="32.14" viewBox="0 0 32.14 32.14">
  <path d="M24.427,10.651a18.465,18.465,0,0,0-.292-3.287H9V13.58h8.649a7.393,7.393,0,0,1-3.207,4.85v4.032h5.194a15.673,15.673,0,0,0,4.792-11.811Z" transform="translate(7.07 5.785)" fill="#4285f4" fill-rule="evenodd"/>
  <path d="M15.318,23.727a15.342,15.342,0,0,0,10.635-3.893L20.76,15.8a9.659,9.659,0,0,1-5.442,1.534A9.577,9.577,0,0,1,6.326,10.71H.957v4.164a16.064,16.064,0,0,0,14.361,8.853Z" transform="translate(0.752 8.413)" fill="#34a853" fill-rule="evenodd"/>
  <path d="M7.078,15.228a9.5,9.5,0,0,1,0-6.107V4.958H1.709a16.09,16.09,0,0,0,0,14.434l5.369-4.164Z" transform="translate(0 3.895)" fill="#fbbc05" fill-rule="evenodd"/>
  <path d="M15.318,6.391a8.681,8.681,0,0,1,6.143,2.4L26.07,4.186A15.444,15.444,0,0,0,15.318,0,16.064,16.064,0,0,0,.957,8.853l5.369,4.164a9.577,9.577,0,0,1,8.992-6.625Z" transform="translate(0.752)" fill="#ea4335" fill-rule="evenodd"/>
  <path d="M0,0H32.14V32.14H0Z" fill="none" fill-rule="evenodd"/>
</svg>
