<svg xmlns="http://www.w3.org/2000/svg" width="32.203" height="27.358"><path fill="currentColor" d="M.437.936a19.256 19.256 0 00-.336 2.469q-.1 1.344-.1 2.344a22.887 22.887 0 001.186 7.586 16.832 16.832 0 003.4 5.836 14.969 14.969 0 005.3 3.75 17.418 17.418 0 006.883 1.313 13.513 13.513 0 004.313-.617 12.1 12.1 0 003.076-1.493 10.7 10.7 0 001.973-1.719 10.035 10.035 0 00.992-1.3l-2.065-.091a11.709 11.709 0 011.672 2.148 16.361 16.361 0 011.156 2.367q.5 1.266 1 2.813a1.417 1.417 0 00.516.781 1.329 1.329 0 00.766.234 1.867 1.867 0 001.43-.664 2.364 2.364 0 00.6-1.648 4.177 4.177 0 00-.477-1.773 13.546 13.546 0 00-1.2-2.008q-.727-1.016-1.492-1.891a18.4 18.4 0 00-1.344-1.406 12.509 12.509 0 00-3.484-2.336 20 20 0 00-3.773-1.242q-1.914-.422-3.734-.734a28.74 28.74 0 01-3.406-.789 8.514 8.514 0 01-2.773-1.391A5.68 5.68 0 018.704 8.92a.445.445 0 01.148-.578q.289-.2.633.141a8.677 8.677 0 002.68 1.93 11.355 11.355 0 002.883.844q1.484.227 3.031.344t3.141.4a13.678 13.678 0 013.2 1 11.859 11.859 0 013.2 2.2.807.807 0 00.8.211.714.714 0 00.492-.57q.047-.313.078-.789t.031-.977a10.783 10.783 0 00-1.562-6.016 9.58 9.58 0 00-4.3-3.585 15.746 15.746 0 00-6.328-1.2 21.667 21.667 0 00-2.477.148q-1.289.148-2.539.3a19.937 19.937 0 01-2.344.148 21.8 21.8 0 01-2.437-.141 8.506 8.506 0 01-2.453-.664A7.119 7.119 0 012.297.421a1.123 1.123 0 00-1.078-.4Q.625.139.437.936z"/></svg>