<svg xmlns="http://www.w3.org/2000/svg" width="32" height="25.6"><title>Ceres</title><path fill="currentColor" d="M21.872 0a10.04 10.04 0 00-10.129 9.924h-.006a4.393 4.393 0 01-.992 2.79 4.631 4.631 0 01-5.466 1.254 4.465 4.465 0 01-2.525-3.06A4.41 4.41 0 013.7 7.059a4.575 4.575 0 013.469-1.588 1.8 1.8 0 00.188.472A1.865 1.865 0 008.5 6.8a2.061 2.061 0 00.487.063 1.885 1.885 0 001.82-1.369 1.794 1.794 0 00-.188-1.4 1.842 1.842 0 00-.966-.794l.006-.012a7.344 7.344 0 00-8 2.123A6.99 6.99 0 000 9.924 15.855 15.855 0 0016 25.6 15.855 15.855 0 0032 9.924 10.04 10.04 0 0021.872 0zm0 2.589a7.42 7.42 0 017.486 7.335 7.488 7.488 0 01-14.972 0 7.42 7.42 0 017.486-7.335zM4.4 16.413a7.2 7.2 0 002.76.552 7.278 7.278 0 005.643-2.635 10.188 10.188 0 0012.589 4.884A13.5 13.5 0 014.4 16.413z"/></svg>