<svg xmlns="http://www.w3.org/2000/svg" width="32" height="34.223" viewBox="0 0 32 34.223">
  <path d="M21.827,38.883a.7.7,0,0,0,.2-.066q.1-.05.182-.1l12.209-6.9a5.07,5.07,0,0,0,1.709-1.452,4.382,4.382,0,0,0,.581-2.513V15.443a4.508,4.508,0,0,0-.116-1.111L21.827,22.709Zm-2.24,0V22.709L4.823,14.331a4.508,4.508,0,0,0-.116,1.111V27.851a4.381,4.381,0,0,0,.581,2.513A5.07,5.07,0,0,0,7,31.816l12.209,6.9a2.007,2.007,0,0,0,.191.1A.877.877,0,0,0,19.587,38.883ZM20.7,20.751l6.685-3.766L12.471,8.509,6.764,11.727a4.691,4.691,0,0,0-.9.647Zm9.008-5.06,5.839-3.318a4.691,4.691,0,0,0-.9-.647L23.618,5.49a5.9,5.9,0,0,0-2.9-.829,5.928,5.928,0,0,0-2.92.829L14.71,7.231Z" transform="translate(-4.707 -4.66)" fill="#0d4137"/>
</svg>
