<svg xmlns="http://www.w3.org/2000/svg" width="14.21" height="16.008"><path fill="#635b57" d="M7.109 13.265q.114 0 .236-.217a2.729 2.729 0 00.229-.632 8.036 8.036 0 00.179-1.01 11.252 11.252 0 00.072-1.349V5.219h-1.44v4.838a11.252 11.252 0 00.072 1.349 7.88 7.88 0 00.179 1.006 2.682 2.682 0 00.232.632q.127.221.241.221zm0-7.673a2.7 2.7 0 001.41-.377 2.828 2.828 0 001.006-1.013 2.727 2.727 0 00.373-1.406 2.727 2.727 0 00-.373-1.406A2.828 2.828 0 008.519.377a2.808 2.808 0 00-2.812 0 2.859 2.859 0 00-1.01 1.013 2.705 2.705 0 00-.377 1.406 2.705 2.705 0 00.377 1.406 2.859 2.859 0 001.01 1.013 2.685 2.685 0 001.402.377zm0 10.416a15.619 15.619 0 002.994-.259 8.981 8.981 0 002.236-.712 4.182 4.182 0 001.394-1.029 1.87 1.87 0 00.476-1.208 1.961 1.961 0 00-.491-1.3 4.26 4.26 0 00-1.276-.994 7.561 7.561 0 00-1.688-.644 8.289 8.289 0 00-1.726-.259v1.181a6.528 6.528 0 012.373.545 3.109 3.109 0 01.9.583 1 1 0 01.347.731 1.331 1.331 0 01-.716 1.1 5.841 5.841 0 01-1.97.743 13.6 13.6 0 01-2.853.27 13.652 13.652 0 01-2.857-.27 5.843 5.843 0 01-1.973-.743 1.331 1.331 0 01-.716-1.1 1 1 0 01.347-.731 3.108 3.108 0 01.9-.583 6.17 6.17 0 011.185-.389 6.292 6.292 0 011.2-.156V9.6a8.289 8.289 0 00-1.726.259 7.561 7.561 0 00-1.688.644 4.311 4.311 0 00-1.28.994 1.952 1.952 0 00-.5 1.3 1.862 1.862 0 00.48 1.208 4.228 4.228 0 001.4 1.029 8.981 8.981 0 002.236.712 15.619 15.619 0 002.992.262zm-.792-13.06a.908.908 0 01-.667-.29.926.926 0 01-.286-.67.91.91 0 01.286-.67.951.951 0 011.619.67.932.932 0 01-.282.67.9.9 0 01-.67.29z"/></svg>