<svg xmlns="http://www.w3.org/2000/svg" width="40" height="40" viewBox="0 0 40 40">
  <g id="plus" transform="translate(-165.98 -365.605)">
    <path d="M18.47,36.585a15.827,15.827,0,0,0,6.379-1.3,16.9,16.9,0,0,0,8.822-8.822A15.857,15.857,0,0,0,34.96,20.1a15.857,15.857,0,0,0-1.289-6.37,16.9,16.9,0,0,0-8.839-8.83,15.917,15.917,0,0,0-6.379-1.289,15.833,15.833,0,0,0-6.345,1.289,16.9,16.9,0,0,0-8.839,8.83A15.857,15.857,0,0,0,1.98,20.1a15.767,15.767,0,0,0,1.3,6.37,16.952,16.952,0,0,0,8.83,8.822A15.786,15.786,0,0,0,18.47,36.585Z" transform="translate(167 365)" fill="#635b57"/>
    <path d="M21.98,43.605a19.2,19.2,0,0,0,7.737-1.574,20.494,20.494,0,0,0,10.7-10.7,19.232,19.232,0,0,0,1.564-7.726,19.232,19.232,0,0,0-1.564-7.726A20.5,20.5,0,0,0,29.7,5.169,19.3,19.3,0,0,0,21.96,3.605a19.2,19.2,0,0,0-7.7,1.564,20.5,20.5,0,0,0-10.72,10.71A19.232,19.232,0,0,0,1.98,23.605a19.124,19.124,0,0,0,1.574,7.726,20.561,20.561,0,0,0,10.71,10.7A19.146,19.146,0,0,0,21.98,43.605Zm-9.4-19.979a1.783,1.783,0,0,1,.514-1.317,1.809,1.809,0,0,1,1.337-.514h5.72V16.054a1.838,1.838,0,0,1,.5-1.327,1.706,1.706,0,0,1,1.286-.525,1.765,1.765,0,0,1,1.317.525,1.818,1.818,0,0,1,.514,1.327v5.741h5.761a1.761,1.761,0,0,1,1.831,1.831,1.715,1.715,0,0,1-.514,1.3,1.824,1.824,0,0,1-1.317.494H23.771v5.741a1.761,1.761,0,0,1-1.831,1.831,1.723,1.723,0,0,1-1.286-.514,1.8,1.8,0,0,1-.5-1.317V25.416h-5.72a1.851,1.851,0,0,1-1.337-.494A1.715,1.715,0,0,1,12.577,23.626Z" transform="translate(164 362)" fill="#fff7f2"/>
  </g>
</svg>
