<svg xmlns="http://www.w3.org/2000/svg" width="17.51" height="17.676" viewBox="0 0 17.51 17.676">
  <path d="M9.316,16.129a5.275,5.275,0,0,0,2.109-.425,5.469,5.469,0,0,0,1.733-1.177,5.584,5.584,0,0,0,1.172-1.733,5.413,5.413,0,0,0,0-4.2,5.562,5.562,0,0,0-2.905-2.92,5.38,5.38,0,0,0-4.214,0A5.549,5.549,0,0,0,4.3,8.59a5.413,5.413,0,0,0,0,4.2,5.584,5.584,0,0,0,1.172,1.733A5.454,5.454,0,0,0,7.212,15.7,5.286,5.286,0,0,0,9.316,16.129Zm0,1.748a7.025,7.025,0,0,1-2.788-.557,7.188,7.188,0,0,1-2.295-1.553,7.3,7.3,0,0,1-1.548-2.295,7.261,7.261,0,0,1,0-5.576,7.2,7.2,0,0,1,1.553-2.29A7.37,7.37,0,0,1,6.533,4.054a6.938,6.938,0,0,1,2.783-.562,6.972,6.972,0,0,1,2.788.562A7.284,7.284,0,0,1,15.947,7.9a7.249,7.249,0,0,1,0,5.571A7.3,7.3,0,0,1,14.4,15.768,7.188,7.188,0,0,1,12.1,17.32,7.025,7.025,0,0,1,9.316,17.877Zm9.121,3.291a1.314,1.314,0,0,1-.459-.083,1.048,1.048,0,0,1-.4-.269l-4.863-4.854,1.748-1.709L19.3,19.107a1.014,1.014,0,0,1,.259.391,1.314,1.314,0,0,1,.083.459,1.277,1.277,0,0,1-.151.62,1.091,1.091,0,0,1-.425.435A1.237,1.237,0,0,1,18.438,21.168Z" transform="translate(-2.129 -3.492)" fill="currentColor"/>
</svg>
